<?xml version="1.0" standalone="no"?>
<!DOCTYPE svg PUBLIC "-//W3C//DTD SVG 20010904//EN"
 "http://www.w3.org/TR/2001/REC-SVG-20010904/DTD/svg10.dtd">
<svg version="1.0" xmlns="http://www.w3.org/2000/svg"
 width="2388.000000pt" height="1696.000000pt" viewBox="0 0 2388.000000 1696.000000"
 preserveAspectRatio="xMidYMid meet">

<g transform="translate(0.000000,1696.000000) scale(0.100000,-0.100000)"
fill="#000000" stroke="none">
<path d="M12778 16698 c-66 -67 -80 -88 -57 -88 19 0 49 20 49 33 0 16 52 67
67 67 15 0 25 29 16 44 -6 9 -29 -8 -75 -56z"/>
<path d="M12225 16553 c-122 -5 -382 -24 -440 -33 -33 -5 -129 -16 -212 -26
-102 -11 -153 -21 -153 -29 0 -6 11 -22 25 -35 l25 -23 172 21 c160 19 173 22
190 45 31 43 110 45 207 5 14 -6 39 -10 55 -9 16 2 114 6 217 10 l188 6 30 29
c17 17 31 34 31 38 0 8 -157 8 -335 1z"/>
<path d="M12568 16534 c-40 -28 -47 -42 -25 -49 31 -9 526 -12 521 -3 -4 6
-36 24 -73 41 -63 28 -74 30 -226 34 l-160 4 -37 -27z"/>
<path d="M13320 16520 c0 -17 92 -80 124 -85 17 -2 90 -12 161 -20 72 -9 199
-29 284 -44 l154 -28 50 28 c40 21 46 28 31 33 -50 15 -438 78 -594 96 -96 11
-183 22 -192 24 -10 2 -18 0 -18 -4z"/>
<path d="M16876 16469 c-37 -20 -38 -23 -33 -60 5 -37 2 -44 -36 -82 -23 -23
-45 -40 -49 -39 -5 1 -8 -2 -8 -8 0 -5 -9 -10 -20 -10 -32 0 -103 -31 -138
-62 -18 -15 -36 -28 -41 -28 -22 0 -102 -162 -88 -176 10 -11 84 16 103 38 18
19 44 25 44 9 0 -5 -7 -15 -16 -22 -9 -7 -20 -23 -25 -36 -5 -15 -17 -23 -31
-23 -17 0 -27 -10 -40 -41 -14 -33 -21 -40 -40 -37 -14 2 -22 -2 -20 -9 1 -7
-2 -13 -7 -13 -26 0 -50 -181 -34 -255 8 -36 12 -40 39 -39 61 3 112 24 150
64 22 22 43 39 47 37 12 -4 47 -106 39 -111 -4 -2 -20 -4 -35 -4 -39 1 -71
-33 -71 -74 0 -42 42 -133 88 -194 23 -30 36 -58 36 -78 0 -45 40 -163 64
-189 15 -16 20 -31 16 -48 l-6 -24 -8 24 c-5 13 -52 69 -106 125 -106 111
-116 127 -150 231 -27 83 -52 115 -78 99 -23 -15 -27 -48 -7 -64 8 -7 15 -17
15 -23 0 -5 -8 -3 -19 7 -10 9 -25 14 -34 10 -10 -3 -20 3 -28 18 -18 35 -194
205 -221 214 -12 4 -29 14 -36 23 -26 31 -6 -5 40 -74 29 -43 64 -82 92 -100
25 -16 46 -33 46 -37 0 -4 20 -29 45 -55 29 -30 43 -53 39 -63 -26 -67 -21
-200 13 -315 12 -38 24 -90 28 -113 7 -42 5 -46 -34 -82 -45 -42 -49 -56 -26
-101 22 -41 50 -50 116 -35 31 7 48 15 39 19 -12 4 -12 6 -1 6 11 1 10 6 -4
21 -10 11 -15 23 -11 27 4 4 11 1 16 -7 5 -8 12 -11 16 -7 4 3 2 12 -4 19 -7
9 -6 25 4 53 9 22 17 56 20 75 3 19 7 41 9 48 6 18 44 15 72 -8 14 -11 39 -20
56 -20 26 0 29 3 22 23 -12 40 -10 61 6 65 19 3 61 -30 143 -116 224 -232 234
-242 260 -242 14 0 26 3 26 8 0 8 -124 132 -258 258 -53 50 -78 80 -71 85 7 4
9 15 5 25 -4 11 15 -2 41 -28 26 -25 71 -57 98 -69 28 -13 54 -28 58 -33 6 -8
10 -7 14 2 2 6 9 12 15 12 7 0 6 -5 -1 -14 -8 -10 -9 -16 -1 -21 6 -3 7 -12 3
-18 -4 -8 -1 -7 9 1 14 11 16 10 11 -9 -5 -18 9 -36 76 -99 87 -83 95 -106 38
-112 -55 -5 -49 -76 9 -110 20 -11 46 -37 59 -58 37 -59 165 -115 165 -72 0 5
-27 42 -61 81 -33 40 -59 74 -57 76 2 2 24 -14 48 -35 117 -103 194 -137 277
-125 41 6 41 6 64 -40 12 -25 27 -45 32 -45 5 0 17 -10 26 -22 l18 -22 36 50
c20 27 37 52 37 57 0 11 -25 8 -37 -4 -7 -7 -26 -8 -52 -4 -44 7 -54 22 -19
27 21 3 21 4 3 21 -14 14 -15 21 -6 27 19 11 -8 49 -39 56 -47 10 -50 13 -50
49 0 19 3 35 8 35 8 0 32 48 32 64 0 5 -8 18 -17 29 -14 15 -15 21 -5 24 16 6
46 63 37 71 -3 4 -10 1 -14 -6 -5 -9 -23 -11 -56 -7 -56 7 -65 11 -65 30 0 8
-8 19 -17 25 -15 8 -13 9 10 4 15 -3 27 -2 27 2 0 5 19 15 43 22 23 8 57 25
76 40 33 25 35 25 63 9 65 -37 129 -19 205 59 49 49 73 60 73 33 0 -15 26 -39
43 -39 8 0 25 11 38 24 14 13 38 26 54 28 24 2 34 12 52 48 13 27 22 65 23 93
l0 47 -48 0 c-37 0 -53 5 -69 23 -19 20 -20 28 -11 82 11 70 3 138 -17 155
-21 18 -19 31 13 70 16 19 32 47 36 63 7 29 13 32 35 18 9 -6 14 -24 13 -46
-1 -31 3 -39 33 -56 35 -21 38 -29 51 -129 10 -83 40 -116 64 -70 18 34 36 23
64 -40 26 -58 55 -95 37 -48 -4 13 -6 29 -3 37 3 9 0 11 -9 6 -10 -6 -9 -2 2
11 45 54 65 186 34 218 -12 12 -14 27 -9 64 9 72 -12 113 -83 159 -32 21 -60
40 -63 43 -22 22 -135 81 -175 91 -49 11 -85 33 -85 51 0 13 39 10 113 -9 66
-17 69 -17 104 2 20 11 46 33 57 48 20 27 20 29 4 55 -10 15 -23 38 -30 52
-17 33 -34 50 -49 50 -7 0 -30 17 -52 38 -37 36 -39 37 -117 37 -43 0 -77 2
-75 4 2 2 -5 13 -17 25 -11 11 -24 33 -30 47 -7 21 -14 26 -31 22 -17 -4 -19
-3 -7 6 12 8 9 12 -15 21 -17 6 -30 10 -31 8 0 -2 -7 2 -15 8 -8 6 -33 11 -56
10 -41 -1 -44 -4 -83 -64 -43 -66 -76 -155 -64 -174 9 -14 164 -87 195 -91 13
-2 44 1 69 8 40 10 45 14 48 43 2 17 -1 39 -6 49 -7 13 -6 24 3 36 13 18 14
18 25 -2 6 -12 8 -21 4 -21 -3 0 3 -16 15 -36 29 -48 27 -72 -6 -87 -42 -18
-58 -47 -27 -47 13 0 15 -6 9 -32 -14 -61 -10 -279 7 -339 15 -53 14 -59 -3
-95 -10 -21 -18 -46 -19 -54 -1 -36 -95 -230 -111 -230 -4 0 -9 17 -11 38 -3
33 -6 37 -34 40 -19 2 -38 -3 -48 -13 -15 -15 -16 -15 -16 0 0 10 31 47 68 84
74 72 129 168 133 231 4 65 -13 185 -32 221 -24 47 -67 98 -93 110 -12 5 -36
21 -55 34 -64 47 -135 45 -180 -6 -14 -16 -29 -29 -32 -29 -10 0 -29 59 -29
90 0 15 -5 42 -11 60 l-12 33 -80 -6 c-44 -4 -83 -11 -86 -16 -3 -5 -25 -14
-47 -20 -32 -8 -43 -17 -48 -36 -4 -14 -12 -25 -19 -25 -7 0 -26 -13 -41 -29
-16 -17 -47 -34 -73 -41 -61 -15 -100 -36 -146 -76 -39 -36 -61 -42 -74 -21
-12 20 -14 55 -3 62 14 8 13 25 -1 25 -25 0 -97 -55 -114 -87 -20 -37 -23 -38
-49 -18 -18 14 -18 15 6 47 27 36 88 159 88 178 0 25 53 108 77 121 13 7 33
26 44 41 18 25 18 30 5 61 -10 25 -25 38 -55 50 -67 27 -45 69 44 82 86 12
165 67 165 115 0 24 -16 35 -79 54 -69 20 -77 20 -125 -5z m1047 -349 c3 -11
1 -18 -4 -14 -5 3 -9 12 -9 20 0 20 7 17 13 -6z m-489 -435 c3 -9 0 -15 -9
-15 -8 0 -15 7 -15 15 0 8 4 15 9 15 5 0 11 -7 15 -15z m-394 -86 c0 -11 -27
-12 -34 0 -3 4 -3 11 0 14 8 8 34 -3 34 -14z m-278 -143 c19 -14 44 -47 56
-74 30 -67 92 -127 148 -142 25 -7 56 -22 69 -32 69 -54 -20 -52 -95 2 -30 22
-87 55 -126 75 -60 29 -74 40 -87 72 -28 71 -45 142 -40 163 5 20 7 19 23 -8
10 -16 34 -41 52 -56z m686 22 c2 -15 -4 -40 -13 -57 -13 -26 -21 -31 -53 -30
-64 1 -76 10 -77 60 -1 24 0 48 2 52 3 4 35 7 71 5 64 -3 67 -4 70 -30z m-212
-3 c-22 -17 -66 -20 -66 -6 0 11 23 18 60 20 24 0 24 0 6 -14z m-155 -151 c11
-14 9 -15 -16 -12 -16 1 -30 9 -33 16 -6 18 33 15 49 -4z m549 -66 c0 -19 -18
-43 -25 -36 -4 3 -2 16 5 27 12 24 20 27 20 9z m46 -147 c-43 -44 -96 -70
-216 -106 -47 -14 -100 -34 -118 -45 -29 -18 -33 -25 -27 -47 6 -25 5 -25 -32
-18 -56 10 -59 19 -19 59 24 25 38 49 42 77 8 48 19 54 105 63 53 6 68 4 78
-8 8 -9 23 -16 35 -16 22 0 128 48 161 73 35 27 30 8 -9 -32z m-247 -247 c2
-2 -17 -4 -42 -4 -26 0 -47 5 -47 10 0 9 78 4 89 -6z m56 -104 c3 -5 -8 -16
-24 -25 -54 -27 -84 -14 -38 18 25 18 53 21 62 7z"/>
<path d="M11285 16453 c-149 -26 -430 -85 -550 -115 -657 -163 -1343 -436
-1920 -766 -267 -153 -277 -161 -221 -192 21 -11 36 -4 154 64 265 154 473
261 727 375 88 40 169 76 180 81 38 17 151 62 285 112 439 163 884 283 1343
362 82 14 153 29 159 32 12 8 -30 49 -58 56 -10 3 -55 -1 -99 -9z"/>
<path d="M12427 16343 c-49 -40 -53 -53 -13 -46 23 5 73 69 63 79 -2 3 -25
-12 -50 -33z"/>
<path d="M17129 16342 c-35 -19 -53 -39 -72 -76 -17 -33 -23 -54 -16 -62 5 -6
42 -28 83 -48 40 -20 84 -48 96 -61 29 -30 60 -31 155 -6 175 47 206 65 220
122 5 22 1 29 -28 47 -19 11 -49 23 -66 27 -17 4 -31 10 -31 14 0 12 -109 41
-151 41 -19 0 -59 7 -89 15 -30 8 -55 14 -55 14 0 -1 -21 -13 -46 -27z"/>
<path d="M14622 16217 c13 -37 14 -63 6 -133 -5 -42 6 -140 17 -152 1 -2 14 0
29 4 33 8 66 61 66 106 0 73 -50 166 -105 195 -23 13 -23 12 -13 -20z"/>
<path d="M12198 16144 c-4 -3 -77 -8 -165 -10 -178 -5 -258 -14 -258 -29 0
-21 82 -37 192 -39 109 -1 112 0 140 27 36 34 55 36 23 2 -13 -14 -22 -26 -19
-26 37 -12 223 28 309 65 34 15 30 15 -91 16 -69 0 -128 -3 -131 -6z"/>
<path d="M11680 16100 c20 -13 80 -13 80 0 0 6 -21 10 -47 10 -35 0 -44 -3
-33 -10z"/>
<path d="M13410 16079 c28 -13 92 -26 170 -35 69 -8 141 -19 160 -23 60 -15
129 -21 135 -11 3 5 2 11 -2 13 -10 6 -373 63 -453 71 l-55 6 45 -21z"/>
<path d="M11365 16070 c-16 -4 -49 -8 -72 -9 -35 -1 -49 -8 -81 -40 -51 -52
-95 -61 -155 -32 l-44 21 -124 -26 c-254 -53 -657 -164 -859 -235 -189 -68
-314 -115 -485 -183 -99 -40 -263 -106 -365 -146 -204 -80 -430 -179 -430
-189 0 -4 16 -23 36 -44 20 -20 32 -37 27 -37 -5 0 -23 16 -42 35 -18 19 -39
35 -47 35 -32 0 -421 -207 -673 -358 -176 -105 -413 -263 -560 -371 -121 -90
-102 -66 64 84 261 234 626 513 903 690 52 33 103 67 115 77 l22 16 -24 26
c-29 30 -26 31 -187 -75 -533 -352 -1046 -788 -1434 -1219 -52 -58 -179 -189
-282 -292 -103 -103 -188 -192 -188 -199 0 -17 82 -91 90 -82 4 4 54 67 111
138 57 72 135 163 174 204 164 173 590 514 918 735 145 97 414 264 486 301 49
25 30 4 -36 -41 -275 -186 -524 -379 -793 -615 -291 -255 -780 -762 -780 -809
0 -7 10 -21 22 -32 26 -22 5 -40 189 167 465 522 1044 1008 1649 1382 396 245
832 462 1105 551 312 102 472 145 805 217 330 71 968 160 939 131 -3 -3 -59
-17 -124 -31 -602 -129 -1234 -354 -1805 -642 -273 -138 -402 -213 -395 -231
3 -9 -1 -12 -15 -7 -15 5 -61 -19 -168 -86 -512 -320 -970 -684 -1382 -1098
-205 -207 -554 -571 -558 -582 -4 -11 52 -69 66 -69 9 0 83 83 146 164 61 80
276 287 453 440 471 403 912 701 1478 996 66 34 122 64 124 66 2 2 -2 10 -9
19 -8 10 -9 15 -1 15 6 0 11 -4 11 -10 0 -18 31 -11 109 26 611 288 1312 505
1981 614 96 15 186 33 200 38 14 6 40 26 58 45 l34 35 -71 -5 c-72 -4 -99 -9
-356 -57 -411 -78 -705 -155 -1085 -283 -380 -128 -899 -350 -892 -382 2 -8
-4 -10 -18 -6 -40 13 -572 -284 -860 -481 -41 -28 -86 -56 -100 -63 -22 -11
-22 -9 5 14 123 107 557 411 750 525 116 68 128 79 114 97 -8 8 -8 13 -1 13 6
0 12 -6 15 -12 4 -14 35 0 222 102 297 163 807 390 1080 479 33 11 101 34 150
51 325 111 784 222 1188 285 87 13 158 30 173 40 15 9 23 12 19 5 -6 -9 15
-10 91 -4 116 10 412 7 531 -5 46 -5 119 -5 165 0 77 9 147 6 241 -7 73 -11
35 -22 -75 -22 -111 -1 -286 -16 -296 -27 -15 -15 19 -17 120 -7 118 12 271 4
378 -20 52 -11 79 -12 190 -7 45 2 144 -15 295 -50 l80 -18 37 26 c21 14 38
29 38 32 0 9 -211 52 -262 53 -54 1 -63 11 -19 21 44 9 58 31 37 54 -16 18
-15 19 43 23 58 4 81 12 69 23 -11 11 -179 38 -288 45 -163 12 -636 11 -820
-1 -85 -5 -223 -13 -306 -18 -84 -5 -157 -12 -163 -15 -6 -4 -11 -16 -11 -27
0 -14 -7 -19 -25 -19 -16 0 -23 4 -19 13 3 8 -2 20 -11 27 -13 10 -61 12 -233
7 -290 -9 -584 -36 -882 -83 -52 -8 -108 -16 -125 -19 -55 -8 -2 14 72 30 183
41 525 104 668 124 166 23 240 38 197 40 -12 1 -55 10 -94 21 -76 21 -103 23
-153 10z m1875 -166 c41 -3 93 -5 115 -5 l40 0 -55 -15 c-30 -8 -74 -26 -98
-39 -46 -26 -111 -31 -177 -16 -29 7 -28 8 18 15 56 10 68 22 30 30 -23 5
-186 26 -203 26 -3 0 1 4 7 8 13 8 190 6 323 -4z"/>
<path d="M11717 16051 c5 -18 31 -31 63 -31 9 1 4 10 -15 25 -36 30 -55 32
-48 6z"/>
<path d="M16290 16060 c0 -5 5 -10 10 -10 6 0 10 5 10 10 0 6 -4 10 -10 10 -5
0 -10 -4 -10 -10z"/>
<path d="M16330 16060 c0 -5 5 -10 10 -10 6 0 10 5 10 10 0 6 -4 10 -10 10 -5
0 -10 -4 -10 -10z"/>
<path d="M12106 16024 c-40 -27 -38 -52 4 -39 18 6 47 52 37 61 -2 2 -20 -8
-41 -22z"/>
<path d="M16287 16030 c-27 -5 -50 -10 -52 -12 -8 -9 -55 -109 -55 -116 0 -5
9 -21 21 -36 l20 -26 60 46 c32 25 59 49 59 54 0 6 16 20 35 32 34 22 48 44
23 36 -7 -3 -21 4 -32 14 -11 10 -22 17 -25 17 -3 -1 -28 -5 -54 -9z"/>
<path d="M14305 16010 c-3 -5 2 -10 12 -11 10 0 44 -4 76 -8 31 -4 57 -6 57
-4 0 1 -13 9 -30 18 -33 17 -106 20 -115 5z"/>
<path d="M13743 15943 c-29 -3 -43 -9 -43 -19 0 -26 148 -11 165 16 6 10 -34
11 -122 3z"/>
<path d="M16030 15879 c0 -7 -8 -17 -17 -24 -24 -18 -7 -70 22 -70 26 0 52 70
34 91 -14 17 -39 18 -39 3z"/>
<path d="M13825 15860 c4 -6 11 -8 16 -5 14 9 11 15 -7 15 -8 0 -12 -5 -9 -10z"/>
<path d="M15845 15859 c-10 -15 3 -25 16 -12 7 7 7 13 1 17 -6 3 -14 1 -17 -5z"/>
<path d="M15200 15825 c0 -7 7 -18 16 -26 8 -7 22 -26 31 -43 16 -32 62 -86
73 -86 13 0 71 93 63 101 -11 10 -110 50 -150 59 -24 6 -33 4 -33 -5z"/>
<path d="M15879 15813 c5 -10 26 -35 45 -57 20 -21 36 -42 36 -47 0 -5 10 -13
21 -20 17 -8 23 -8 29 2 11 18 -9 57 -34 65 -12 4 -27 15 -34 25 -7 11 -27 26
-43 35 -29 14 -30 14 -20 -3z"/>
<path d="M18365 15820 c-8 -13 4 -50 16 -50 5 0 9 7 9 15 0 9 7 18 16 22 13 5
13 7 2 14 -18 12 -36 11 -43 -1z"/>
<path d="M14549 15798 c-6 -12 -13 -41 -14 -65 -1 -23 -4 -45 -7 -48 -3 -4 -4
-32 -1 -63 5 -51 -3 -101 -36 -237 -7 -29 -55 -63 -91 -65 -20 0 -47 -54 -54
-107 -5 -34 -3 -43 9 -43 21 0 19 -13 -5 -35 -11 -10 -20 -31 -20 -47 l0 -29
30 21 c17 12 37 35 45 51 11 20 23 29 39 29 13 0 29 7 36 15 7 8 18 15 25 15
7 0 18 6 24 14 10 12 8 15 -10 18 -35 5 -32 21 8 43 69 37 78 67 80 260 1 94
2 173 2 178 2 13 38 7 52 -9 12 -15 61 -44 75 -44 3 0 -7 15 -22 34 -16 19
-40 50 -54 70 -14 19 -30 36 -36 36 -6 0 -17 7 -24 15 -18 21 -37 19 -51 -7z"/>
<path d="M12016 15764 c-7 -18 17 -29 39 -17 14 8 12 11 -9 21 -20 9 -25 8
-30 -4z"/>
<path d="M16198 15743 c-20 -5 -29 -84 -12 -115 12 -23 144 -158 155 -158 3 0
9 21 13 46 22 164 -42 257 -156 227z"/>
<path d="M13782 15711 c-30 -27 -32 -31 -15 -39 10 -5 43 -15 73 -21 30 -7 65
-14 77 -17 17 -5 23 -2 23 11 0 28 -38 72 -67 78 -16 3 -35 8 -43 11 -8 3 -29
-7 -48 -23z"/>
<path d="M11805 15720 c-12 -4 -27 -15 -34 -24 -13 -15 -11 -16 18 -11 38 7
68 30 48 38 -6 2 -21 1 -32 -3z"/>
<path d="M12101 15661 c-9 -6 -4 -10 18 -13 21 -3 31 0 31 9 0 15 -28 17 -49
4z"/>
<path d="M14257 15628 c-15 -23 -37 -132 -37 -179 0 -27 16 -57 25 -48 7 8 36
241 31 247 -3 2 -11 -7 -19 -20z"/>
<path d="M11696 15621 c-3 -5 1 -11 9 -15 9 -3 15 0 15 9 0 16 -16 20 -24 6z"/>
<path d="M18612 15583 c-1 -27 -5 -60 -8 -75 -3 -17 -1 -28 5 -28 6 0 11 7 11
15 0 8 4 15 8 15 5 0 8 27 8 60 0 73 -22 85 -24 13z"/>
<path d="M12333 15603 c-24 -2 -43 -8 -43 -12 0 -4 12 -18 26 -32 25 -24 30
-24 249 -29 l223 -5 42 36 41 36 -182 6 c-183 7 -277 7 -356 0z"/>
<path d="M12015 15570 c-38 -17 -76 -37 -85 -46 -14 -15 -10 -16 50 -10 36 3
127 9 203 12 75 4 137 10 137 13 0 4 -14 19 -31 34 -29 25 -37 27 -118 27 -73
0 -97 -5 -156 -30z"/>
<path d="M12974 15555 c-32 -29 -35 -35 -19 -35 11 0 108 -9 215 -19 l195 -19
27 31 c26 32 26 32 5 39 -18 5 -338 38 -374 38 -5 0 -27 -16 -49 -35z"/>
<path d="M11701 15565 c-111 -13 -115 -14 -152 -51 -21 -21 -37 -39 -35 -41 2
-2 67 3 145 10 137 14 142 15 180 48 22 19 40 37 40 42 1 9 -39 8 -178 -8z"/>
<path d="M13998 15525 c15 -33 32 -46 32 -25 0 19 -24 60 -35 60 -9 0 -8 -10
3 -35z"/>
<path d="M13538 15531 c-9 -3 -26 -18 -37 -33 l-21 -26 27 -6 c85 -17 224 -35
236 -30 8 3 23 18 35 33 l21 29 -112 16 c-62 10 -116 18 -122 20 -5 2 -18 0
-27 -3z"/>
<path d="M14170 15279 c0 -12 29 -38 43 -39 15 0 6 30 -12 40 -25 13 -31 13
-31 -1z"/>
<path d="M15250 15254 c0 -8 5 -12 10 -9 6 3 10 10 10 16 0 5 -4 9 -10 9 -5 0
-10 -7 -10 -16z"/>
<path d="M12540 15221 c0 -5 7 -11 15 -15 8 -3 20 -17 25 -31 5 -14 16 -25 24
-25 7 0 19 -7 26 -15 7 -8 16 -15 21 -15 26 0 -13 83 -47 99 -30 13 -64 15
-64 2z"/>
<path d="M15112 15137 c-18 -18 -32 -40 -32 -49 0 -13 5 -13 39 4 48 23 65 43
57 63 -9 24 -29 18 -64 -18z"/>
<path d="M15683 15101 c6 -17 15 -28 19 -25 9 6 -6 39 -21 49 -5 3 -4 -8 2
-24z"/>
<path d="M18425 15043 c4 -27 13 -64 21 -83 12 -27 17 -32 24 -20 17 27 11 96
-11 124 -31 40 -42 33 -34 -21z"/>
<path d="M15349 15007 c-84 -54 -170 -157 -130 -157 41 0 168 104 184 152 9
26 -17 28 -54 5z"/>
<path d="M15690 14980 c0 -5 9 -12 20 -15 21 -7 27 -43 11 -60 -5 -6 -12 -21
-16 -33 -6 -21 -4 -23 14 -17 16 5 23 1 30 -18 14 -36 29 -42 37 -14 10 42 -5
97 -34 126 -29 29 -62 46 -62 31z"/>
<path d="M18401 14889 c1 -24 -2 -54 -6 -66 -6 -18 -3 -23 9 -23 9 0 16 -6 17
-12 1 -20 25 52 32 95 4 27 2 37 -8 37 -7 0 -21 3 -30 6 -13 6 -16 -1 -14 -37z"/>
<path d="M14860 14764 c-30 -7 -67 -11 -82 -8 -15 3 -36 3 -47 -1 -18 -5 -97
-103 -109 -134 -5 -14 -4 -14 13 -1 11 8 29 23 40 33 33 30 84 47 144 47 31 1
74 7 96 15 55 20 76 19 68 -2 -5 -13 -2 -15 18 -10 13 4 27 7 32 7 17 0 4 19
-31 44 -42 29 -62 31 -142 10z"/>
<path d="M17540 14730 c0 -5 5 -10 10 -10 6 0 10 5 10 10 0 6 -4 10 -10 10 -5
0 -10 -4 -10 -10z"/>
<path d="M17646 14644 c-9 -22 3 -32 14 -14 12 19 12 30 1 30 -5 0 -12 -7 -15
-16z"/>
<path d="M16728 14591 c-8 -11 -29 -24 -46 -27 -37 -8 -75 -45 -70 -71 3 -14
13 -18 48 -18 33 0 52 -6 69 -22 24 -22 46 -22 38 1 -3 8 4 11 24 8 16 -2 29
-10 29 -17 0 -6 9 -20 20 -30 19 -18 20 -17 20 3 0 11 -6 23 -12 26 -13 6 35
2 139 -10 71 -9 105 1 101 28 -2 19 -18 27 -97 49 -55 16 -111 40 -137 59 -58
41 -106 50 -126 21z"/>
<path d="M17660 14600 c0 -5 5 -10 10 -10 6 0 10 5 10 10 0 6 -4 10 -10 10 -5
0 -10 -4 -10 -10z"/>
<path d="M17650 14554 c0 -8 5 -12 10 -9 6 4 8 11 5 16 -9 14 -15 11 -15 -7z"/>
<path d="M17625 14510 c-3 -5 -1 -10 4 -10 6 0 11 5 11 10 0 6 -2 10 -4 10 -3
0 -8 -4 -11 -10z"/>
<path d="M15960 14476 c0 -8 5 -18 10 -21 7 -4 3 -19 -10 -39 -11 -19 -20 -37
-20 -41 0 -7 80 0 118 11 26 8 26 7 8 43 -20 37 -39 52 -75 57 -23 4 -31 1
-31 -10z"/>
<path d="M20408 14063 c18 -3 32 -10 32 -18 0 -8 5 -17 11 -21 7 -4 9 0 5 14
-7 19 -4 21 29 17 23 -3 34 -1 30 5 -3 5 -36 9 -73 8 -37 0 -52 -3 -34 -5z"/>
<path d="M20465 14000 c3 -5 8 -10 11 -10 2 0 4 5 4 10 0 6 -5 10 -11 10 -5 0
-7 -4 -4 -10z"/>
<path d="M19197 13968 c-28 -22 -10 -53 44 -78 l49 -24 30 35 c32 38 36 48 18
50 -7 1 -27 2 -44 4 -17 1 -40 8 -52 14 -26 14 -25 14 -45 -1z"/>
<path d="M19456 13865 c-10 -15 -16 -28 -14 -30 2 -2 26 7 53 20 35 16 44 24
28 24 -12 1 -28 3 -36 7 -8 3 -21 -6 -31 -21z"/>
<path d="M17695 13807 c-28 -23 -93 -87 -145 -142 -52 -55 -144 -145 -203
-200 -166 -153 -218 -207 -215 -222 2 -8 25 -24 51 -35 61 -27 73 -17 70 58
-3 48 1 62 29 101 78 114 252 254 350 282 101 29 143 57 153 102 4 15 2 36 -4
46 -9 15 -10 13 -5 -9 5 -22 2 -28 -10 -28 -9 0 -16 -6 -17 -12 0 -7 -5 -2
-10 11 -12 30 -3 61 18 61 15 0 14 22 -3 26 -5 1 -32 -16 -59 -39z"/>
<path d="M18115 13830 c-22 -35 38 -77 62 -44 25 34 17 54 -21 54 -19 0 -38
-5 -41 -10z"/>
<path d="M18316 13792 c-7 -12 6 -23 64 -52 66 -33 110 -70 110 -91 0 -10 5
-21 10 -24 6 -3 10 -13 10 -22 0 -21 35 -50 87 -74 23 -10 45 -23 48 -29 3 -6
27 -20 53 -31 31 -14 83 -58 155 -130 89 -90 113 -109 138 -109 33 0 39 9 40
60 2 61 0 67 -16 46 -12 -16 -17 -17 -30 -6 -9 8 -23 26 -31 41 -9 18 -36 38
-76 57 -57 27 -103 59 -148 102 -8 8 -50 43 -92 78 -42 34 -94 83 -114 107
-27 34 -49 49 -86 60 -76 22 -115 28 -122 17z"/>
<path d="M16150 13723 c-19 -1 -57 -8 -85 -14 -36 -8 -71 -8 -129 0 -44 6 -81
10 -83 7 -7 -7 101 -38 147 -42 25 -3 51 -7 58 -9 7 -3 23 0 34 6 16 8 19 8
13 -1 -6 -9 5 -10 41 -6 80 11 85 13 72 42 -6 13 -16 23 -22 22 -6 0 -27 -3
-46 -5z"/>
<path d="M6363 13483 c-340 -373 -666 -808 -915 -1223 -96 -160 -254 -449
-308 -564 -23 -49 -55 -117 -71 -150 -50 -103 -129 -293 -129 -311 0 -10 -6
-23 -13 -29 -21 -17 -133 -316 -212 -566 -82 -257 -196 -700 -195 -756 1 -18
1 -18 15 0 8 11 15 29 15 41 0 30 47 212 70 270 11 28 33 105 50 172 34 137
67 233 120 348 6 11 26 76 45 145 51 179 76 253 91 271 8 8 14 28 14 42 0 15
7 35 16 45 46 52 152 236 260 452 192 384 385 706 626 1045 144 201 458 593
458 570 0 -3 -36 -59 -80 -125 -104 -156 -188 -291 -292 -475 -96 -169 -271
-515 -264 -522 2 -3 32 17 65 44 54 43 67 62 127 178 169 330 400 703 630
1019 l65 89 -43 44 c-23 23 -45 43 -49 43 -4 0 -47 -44 -96 -97z"/>
<path d="M18322 13478 c3 -7 22 -16 44 -21 94 -19 113 -28 143 -66 17 -21 31
-42 31 -45 0 -3 20 -34 44 -69 24 -34 60 -94 79 -134 43 -84 33 -99 -28 -45
-81 71 -230 208 -272 250 -25 24 -61 58 -81 75 -33 27 -32 25 7 -16 l44 -46
-36 6 c-34 5 -37 3 -53 -31 -17 -35 -17 -36 5 -60 l22 -24 -39 0 c-21 0 -68
-8 -103 -17 -61 -16 -101 -16 -184 1 -27 5 -37 0 -73 -36 -23 -23 -43 -52 -43
-64 -1 -11 -2 -37 -3 -56 l-1 -35 -60 -5 c-65 -5 -94 -22 -148 -86 -47 -54
-67 -124 -74 -257 -3 -65 -10 -120 -14 -123 -5 -3 -9 -11 -9 -17 0 -7 4 -6 10
3 12 19 17 12 23 -31 2 -19 10 -45 16 -57 7 -12 9 -28 5 -35 -4 -6 -4 -9 0 -6
11 11 56 -39 71 -79 17 -48 28 -139 17 -146 -5 -3 -24 -1 -42 4 -20 6 -39 6
-50 0 -17 -9 -17 -11 1 -47 10 -20 19 -48 19 -61 0 -41 91 -132 133 -132 9 0
34 -17 56 -39 21 -21 70 -55 109 -76 49 -26 74 -45 82 -65 6 -15 21 -31 33
-34 12 -3 31 -19 42 -36 38 -58 110 -31 145 54 12 30 28 60 36 67 8 6 14 19
14 29 0 22 39 72 51 65 5 -4 9 -3 9 2 0 17 61 42 89 37 59 -12 144 72 200 200
11 27 21 58 21 70 0 11 13 53 29 92 16 39 35 97 42 130 7 32 25 84 41 115 15
31 28 65 28 76 0 11 9 32 21 47 14 17 23 47 26 87 3 33 9 61 12 63 3 2 17 -5
30 -15 30 -25 42 -85 26 -133 -7 -20 -10 -36 -6 -36 3 0 0 -4 -8 -9 -11 -7
-12 -13 -3 -23 7 -10 8 -18 0 -28 -8 -12 -9 -12 -4 3 3 9 1 17 -5 17 -6 0 -9
-18 -8 -43 2 -24 -1 -49 -6 -56 -5 -9 -3 -12 6 -9 8 3 14 16 14 30 0 14 12 43
28 64 15 21 27 33 27 26 0 -6 4 -12 8 -12 4 0 8 16 9 35 1 54 10 68 38 63 30
-6 30 -8 3 39 -27 48 -68 93 -84 93 -14 0 -64 56 -64 72 0 6 -17 30 -39 53
-72 78 -78 115 -8 49 21 -20 41 -33 45 -30 12 13 -28 139 -64 197 -19 32 -77
101 -128 152 -75 77 -103 98 -149 116 -64 23 -151 29 -145 9z m85 -199 c22
-30 38 -55 34 -57 -4 -1 -43 6 -87 17 -77 18 -78 19 -51 32 18 8 30 23 34 41
7 38 20 32 70 -33z m-489 -345 c-2 -10 -22 -31 -44 -46 -42 -28 -65 -75 -44
-88 7 -4 1 -28 -18 -71 -16 -35 -32 -81 -36 -101 -14 -80 -43 -23 -33 64 4 28
15 65 26 84 11 18 23 49 27 68 7 42 99 135 116 118 5 -5 8 -18 6 -28z m100
-126 c-6 -18 -28 -21 -28 -4 0 9 7 16 16 16 9 0 14 -5 12 -12z m332 -12 c44
-20 70 -40 70 -55 0 -9 -6 -9 -22 1 -14 7 -56 12 -108 11 -84 -1 -84 -1 -113
-37 -23 -29 -34 -35 -53 -30 -21 5 -24 3 -25 -22 -4 -67 5 -99 47 -172 24 -42
44 -82 44 -88 0 -17 44 -54 76 -63 42 -11 213 6 242 25 33 22 22 27 -21 9 -70
-29 -102 -12 -52 27 29 23 35 54 8 42 -10 -4 -49 -9 -88 -11 -69 -5 -71 -4
-102 29 -30 31 -103 165 -103 189 0 6 11 8 28 5 15 -3 52 -8 82 -11 78 -8 113
-21 145 -55 26 -27 27 -30 10 -36 -10 -4 -40 -3 -67 3 -46 9 -48 9 -48 -13 0
-34 48 -49 117 -37 51 9 57 8 84 -14 16 -14 29 -31 29 -38 0 -7 7 -15 15 -19
42 -16 -22 -105 -111 -157 -71 -40 -128 -34 -199 21 -130 101 -157 141 -175
256 -13 80 -17 89 -36 73 -9 -7 -14 -32 -15 -68 0 -47 -2 -52 -10 -31 -16 38
-7 115 12 115 21 0 49 24 49 40 0 18 102 122 125 128 35 9 129 -1 165 -17z
m570 -61 c0 -2 -6 -8 -13 -14 -10 -8 -14 -7 -14 2 0 8 6 14 14 14 7 0 13 -1
13 -2z m-1015 -24 c3 -10 1 -38 -4 -62 -6 -24 -11 -61 -11 -81 0 -31 -4 -38
-19 -38 -11 0 -23 9 -26 21 -8 26 3 123 18 156 12 28 33 30 42 4z m997 -20 c8
11 9 11 6 1 -4 -16 -22 -18 -24 -3 -2 8 -1 7 3 0 4 -8 8 -7 15 2z m-337 -33
c24 -18 47 -41 50 -50 7 -20 -11 -95 -25 -103 -12 -7 -93 162 -84 176 8 13 11
12 59 -23z m-796 -192 c1 -16 13 -63 29 -104 35 -96 103 -169 197 -214 58 -27
74 -30 125 -25 32 3 85 15 119 27 53 18 68 20 117 11 31 -6 68 -8 82 -4 32 8
27 -7 -25 -77 l-37 -50 -126 -1 c-160 -1 -198 1 -227 12 -37 14 -26 1 18 -22
35 -17 56 -20 125 -17 60 2 84 0 84 -9 0 -17 -25 -22 -110 -25 -69 -1 -82 2
-138 32 -82 43 -186 154 -223 236 -22 50 -29 83 -34 168 -6 105 0 150 16 110
4 -10 8 -32 8 -48z m853 -46 c-5 -35 -20 -49 -33 -29 -15 23 -10 39 14 49 12
5 22 9 23 9 0 1 -1 -13 -4 -29z m-312 -425 c0 -8 -7 -15 -15 -15 -8 0 -15 7
-15 15 0 8 7 15 15 15 8 0 15 -7 15 -15z"/>
<path d="M16974 13454 c-18 -14 -18 -15 6 -8 31 8 50 24 29 24 -8 0 -24 -7
-35 -16z"/>
<path d="M6522 13288 c-140 -175 -258 -335 -386 -527 -121 -181 -292 -459
-285 -465 2 -2 31 12 64 31 54 31 67 45 119 131 152 250 360 544 568 806 l79
98 -22 24 c-12 13 -26 24 -30 24 -5 0 -53 -55 -107 -122z"/>
<path d="M17149 13410 c0 -3 -3 -18 -5 -35 -5 -28 -4 -29 12 -14 12 13 14 21
5 35 -6 11 -11 17 -12 14z"/>
<path d="M17180 13399 c0 -5 5 -7 10 -4 6 3 10 8 10 11 0 2 -4 4 -10 4 -5 0
-10 -5 -10 -11z"/>
<path d="M9150 13060 c0 -224 2 -260 15 -260 12 0 15 19 15 108 0 163 21 214
94 228 45 8 81 -1 106 -26 18 -18 20 -34 20 -165 0 -138 1 -145 20 -145 19 0
20 7 20 113 -1 137 -11 191 -40 222 -43 46 -135 45 -190 -1 l-30 -26 0 106 c0
88 -3 106 -15 106 -13 0 -15 -36 -15 -260z"/>
<path d="M11910 13214 l0 -106 -30 26 c-53 44 -132 46 -185 4 -43 -34 -59 -76
-59 -158 0 -108 34 -163 111 -180 45 -11 99 1 136 30 l26 20 3 -22 c2 -12 9
-23 16 -26 9 -3 12 53 12 257 0 225 -2 261 -15 261 -12 0 -15 -18 -15 -106z
m-44 -106 c49 -48 49 -208 1 -255 -52 -52 -155 -34 -182 31 -18 42 -20 140 -4
185 25 71 132 93 185 39z"/>
<path d="M12430 13214 l0 -106 -30 26 c-53 44 -132 46 -185 4 -43 -34 -59 -76
-59 -158 0 -108 34 -163 111 -180 45 -11 99 1 136 30 l26 20 3 -22 c2 -12 9
-23 16 -26 9 -3 12 53 12 257 0 225 -2 261 -15 261 -12 0 -15 -18 -15 -106z
m-44 -106 c49 -48 49 -208 1 -255 -52 -52 -155 -34 -182 31 -18 42 -20 140 -4
185 25 71 132 93 185 39z"/>
<path d="M14924 13297 c-22 -20 -29 -36 -34 -78 -5 -50 -7 -54 -34 -59 -44 -8
-45 -30 -2 -30 l36 0 0 -165 c0 -140 2 -165 15 -165 13 0 15 25 15 165 l0 165
40 0 c29 0 40 4 40 15 0 11 -11 15 -41 15 l-42 0 5 50 c7 67 20 80 80 80 64 0
61 24 -4 28 -37 2 -51 -2 -74 -21z"/>
<path d="M8627 13283 c-18 -17 0 -23 73 -23 l80 0 0 -230 c0 -223 1 -230 20
-230 19 0 20 7 20 230 l0 230 75 0 c60 0 75 3 75 15 0 13 -25 15 -168 15 -93
0 -172 -3 -175 -7z"/>
<path d="M10402 13279 c3 -8 33 -119 68 -247 49 -181 67 -232 78 -230 11 2 33
67 74 213 32 116 60 214 61 220 2 5 27 -76 57 -180 29 -105 57 -205 62 -222
10 -36 33 -44 42 -15 17 57 126 457 126 464 0 4 -7 8 -15 8 -8 0 -19 -16 -24
-37 -6 -21 -32 -118 -58 -216 l-47 -178 -61 213 c-80 282 -80 282 -153 18 -29
-107 -56 -202 -59 -210 -3 -8 -18 35 -34 95 -69 267 -84 310 -103 313 -13 3
-17 -1 -14 -9z"/>
<path d="M12692 13263 c4 -36 33 -39 33 -3 0 16 -6 26 -18 28 -15 3 -18 -2
-15 -25z"/>
<path d="M14345 13276 c-102 -44 -152 -193 -111 -329 30 -101 96 -149 202
-149 82 0 137 29 179 96 28 47 30 55 30 151 0 95 -2 105 -30 151 -40 65 -96
94 -180 94 -33 -1 -73 -7 -90 -14z m192 -42 c48 -35 75 -97 77 -172 1 -89 -9
-135 -41 -172 -36 -43 -77 -61 -138 -61 -117 0 -177 74 -177 217 0 107 38 177
112 207 33 14 139 1 167 -19z"/>
<path d="M18856 13261 c-3 -5 3 -26 13 -47 24 -49 38 -82 47 -114 4 -13 23
-49 42 -78 33 -50 37 -52 44 -31 l9 22 31 -29 c18 -16 38 -35 46 -42 30 -27
24 0 -11 50 -19 29 -54 84 -75 121 -40 67 -115 157 -132 157 -5 0 -11 -4 -14
-9z"/>
<path d="M21015 13214 c-29 -24 -29 -25 -5 -18 23 6 50 27 50 38 0 12 -16 5
-45 -20z"/>
<path d="M9745 13156 c-65 -29 -95 -84 -95 -177 0 -103 42 -165 122 -179 64
-12 178 13 157 35 -3 3 -31 0 -62 -5 -106 -20 -172 20 -184 110 l-6 40 133 0
133 0 -6 51 c-7 61 -26 93 -70 119 -37 23 -79 25 -122 6z m99 -26 c29 -10 56
-57 56 -95 l0 -25 -110 0 -110 0 6 28 c20 80 87 119 158 92z"/>
<path d="M11245 13156 c-67 -31 -95 -84 -95 -182 0 -98 40 -157 118 -175 60
-13 182 14 161 36 -3 3 -31 0 -62 -5 -106 -20 -172 20 -184 110 l-6 40 133 0
133 0 -5 43 c-10 86 -53 135 -124 143 -22 2 -52 -2 -69 -10z m99 -26 c29 -10
56 -57 56 -95 l0 -25 -110 0 -110 0 6 28 c20 80 87 119 158 92z"/>
<path d="M13054 13156 c-18 -8 -35 -19 -38 -25 -11 -18 -26 -13 -26 9 0 11 -7
20 -15 20 -13 0 -15 -27 -15 -180 0 -153 2 -180 15 -180 12 0 15 19 15 108 0
163 21 214 94 228 45 8 81 -1 106 -26 18 -18 20 -34 20 -165 0 -138 1 -145 20
-145 19 0 20 7 20 113 -1 140 -11 192 -43 225 -31 30 -106 40 -153 18z"/>
<path d="M13522 13154 c-67 -34 -83 -120 -33 -176 29 -33 29 -33 10 -57 -23
-28 -24 -49 -3 -72 15 -16 14 -19 -13 -33 -70 -36 -68 -126 3 -160 79 -37 226
-9 252 50 41 88 -14 144 -141 144 -85 0 -110 27 -67 70 14 14 33 20 66 20 39
0 51 5 81 35 31 31 35 39 30 78 -2 23 -8 52 -12 65 -7 20 -4 22 29 22 20 0 36
5 36 10 0 6 -20 10 -44 10 -23 0 -70 2 -102 5 -44 4 -67 2 -92 -11z m133 -39
c41 -40 29 -121 -22 -144 -82 -38 -164 32 -133 114 15 40 38 54 88 55 32 0 49
-6 67 -25z m44 -319 c66 -60 -36 -150 -147 -130 -61 10 -82 29 -82 73 0 63 33
81 142 78 49 -2 72 -8 87 -21z"/>
<path d="M12690 12980 c0 -173 1 -180 20 -180 19 0 20 7 20 180 0 173 -1 180
-20 180 -19 0 -20 -7 -20 -180z"/>
<path d="M15183 13134 c-7 -19 20 -49 36 -40 6 4 11 18 11 32 0 17 -5 24 -20
24 -11 0 -23 -7 -27 -16z"/>
<path d="M6834 13088 c-131 -140 -464 -549 -464 -570 0 -5 26 -8 58 -8 37 0
66 -6 81 -16 27 -19 18 -28 116 116 43 63 130 184 194 269 161 214 151 194
116 231 -16 16 -34 30 -40 30 -7 0 -34 -24 -61 -52z"/>
<path d="M18886 13044 c-3 -9 -6 -38 -6 -66 0 -42 5 -54 32 -81 40 -41 45 -26
19 58 -12 37 -21 76 -21 86 0 23 -16 25 -24 3z"/>
<path d="M20826 13034 c-9 -23 -2 -28 31 -19 27 6 27 7 9 21 -25 18 -32 18
-40 -2z"/>
<path d="M17221 12969 c-13 -10 -29 -19 -37 -19 -8 0 -14 -9 -14 -20 0 -11 5
-20 10 -20 6 0 10 6 10 14 0 8 4 18 10 21 6 4 7 -1 4 -12 -4 -10 6 -2 21 17
21 27 25 30 20 12 -5 -16 -3 -22 7 -20 7 2 12 -5 11 -16 -1 -11 2 -15 8 -9 10
10 -3 57 -18 66 -4 3 -19 -3 -32 -14z"/>
<path d="M17225 12932 c-6 -6 4 -22 15 -22 4 0 10 6 13 13 5 13 -17 20 -28 9z"/>
<path d="M15192 12848 c-16 -16 -15 -33 1 -46 18 -16 39 1 35 28 -4 28 -19 35
-36 18z"/>
<path d="M20562 12765 c-13 -27 -1 -34 28 -15 13 8 13 11 -1 25 -14 14 -16 13
-27 -10z"/>
<path d="M19019 12685 c19 -35 50 -67 61 -63 6 2 -8 21 -31 43 -23 22 -36 31
-30 20z"/>
<path d="M17357 12669 c4 -13 8 -18 11 -10 2 7 -1 18 -6 23 -8 8 -9 4 -5 -13z"/>
<path d="M17416 12667 c3 -10 9 -15 12 -12 3 3 0 11 -7 18 -10 9 -11 8 -5 -6z"/>
<path d="M17521 12633 c-1 -6 -4 -20 -7 -30 -5 -17 -5 -17 6 0 6 10 9 23 6 30
-3 9 -5 9 -5 0z"/>
<path d="M17463 12552 c-1 -22 0 -24 9 -8 6 10 6 22 2 26 -5 5 -10 -3 -11 -18z"/>
<path d="M17524 12522 c3 -6 2 -13 -4 -17 -10 -6 -9 -40 3 -51 3 -4 4 4 2 16
-3 13 0 29 6 36 7 8 6 14 -2 20 -7 4 -9 3 -5 -4z"/>
<path d="M6161 11939 l-53 -31 -98 -201 c-102 -209 -187 -403 -260 -592 -67
-172 -180 -506 -180 -531 0 -13 -4 -26 -10 -29 -5 -3 -10 -17 -10 -31 0 -35
16 -21 24 21 4 21 13 35 21 35 8 0 15 3 15 8 0 4 11 19 24 33 30 32 48 69 71
139 91 286 291 756 460 1083 36 70 62 127 58 127 -4 0 -32 -14 -62 -31z"/>
<path d="M17730 11941 c0 -5 5 -13 10 -16 6 -3 10 -2 10 4 0 5 -4 13 -10 16
-5 3 -10 2 -10 -4z"/>
<path d="M5918 11783 c-37 -27 -68 -51 -68 -55 0 -4 -14 -31 -31 -60 -44 -74
-229 -444 -279 -558 -87 -197 -129 -298 -136 -326 -3 -16 -12 -38 -19 -49 -19
-32 -185 -502 -185 -526 0 -4 7 -6 16 -2 12 4 14 0 10 -18 -5 -22 18 -69 28
-58 2 2 18 49 35 104 18 55 59 175 92 267 32 92 59 175 59 184 0 10 -10 28
-22 41 -12 13 -17 23 -12 23 5 0 15 -9 22 -20 7 -11 16 -20 20 -20 5 0 26 44
47 98 111 280 328 722 485 985 12 20 18 37 13 37 -4 0 -38 -21 -75 -47z"/>
<path d="M18395 11788 c8 -52 50 -99 106 -121 35 -14 39 -14 39 0 0 9 -6 13
-14 10 -11 -4 -13 -1 -9 10 4 10 2 14 -3 10 -6 -4 -9 5 -6 22 7 50 -42 110
-91 111 -28 0 -29 -1 -22 -42z"/>
<path d="M10492 11768 c-6 -9 -12 -348 -17 -964 -4 -524 -11 -957 -15 -964 -4
-7 -97 -20 -251 -36 -134 -13 -362 -38 -507 -55 -153 -18 -267 -28 -272 -23
-5 5 -9 241 -10 524 -1 283 -4 660 -7 838 -7 356 -6 352 -68 352 -65 0 -62 43
-69 -890 -4 -660 -9 -847 -18 -856 -7 -6 -89 -23 -183 -39 -378 -60 -767 -143
-919 -194 -161 -55 -229 -119 -153 -145 23 -8 45 -3 130 31 134 55 173 66 422
118 342 73 694 130 708 116 9 -9 13 -147 15 -544 2 -340 6 -542 13 -558 18
-45 93 -45 110 -1 7 17 12 233 14 567 1 297 3 546 4 553 0 7 12 17 25 22 32
12 339 55 571 79 423 45 423 45 439 32 13 -11 16 -115 18 -804 2 -623 6 -797
16 -814 16 -29 82 -32 103 -6 12 13 15 156 17 819 2 631 6 805 16 813 6 6 86
15 177 21 90 6 230 15 312 21 81 5 152 7 157 4 6 -3 10 -49 10 -102 0 -118 19
-165 82 -206 80 -51 161 -34 256 57 l58 55 23 -45 c49 -91 130 -134 255 -134
146 0 335 79 493 206 l42 34 7 -57 c4 -31 5 -238 2 -459 -4 -276 -2 -406 5
-413 17 -17 55 -13 66 7 11 21 26 141 41 322 26 319 57 506 101 621 36 94 79
154 124 176 31 15 36 15 59 -1 35 -23 58 -70 54 -114 -3 -34 -7 -39 -66 -67
-108 -52 -157 -116 -130 -171 17 -37 52 -54 111 -54 91 0 154 52 188 155 18
54 22 57 132 100 68 28 97 54 97 87 0 24 -25 23 -61 -2 -44 -32 -118 -62 -137
-56 -11 4 -23 24 -29 49 -26 95 -89 147 -178 147 -92 -1 -188 -68 -230 -160
-23 -50 -29 -40 -40 66 -8 81 -26 114 -60 114 -41 0 -55 -34 -55 -131 l0 -87
-102 -60 c-210 -125 -351 -175 -440 -158 -43 8 -92 46 -113 87 -20 38 -20 143
0 159 9 7 55 17 103 21 145 13 176 22 225 67 17 17 27 36 27 54 0 92 -186 127
-330 62 -98 -44 -160 -121 -185 -226 -12 -56 -20 -69 -73 -119 -85 -80 -138
-84 -169 -12 -13 31 -15 62 -10 166 7 142 0 173 -38 183 -41 10 -72 -10 -86
-54 l-11 -39 -142 -6 c-77 -4 -228 -7 -333 -7 -192 0 -193 0 -197 23 -3 12 -8
443 -11 957 -4 630 -10 939 -17 947 -13 17 -82 17 -96 1z m1532 -1864 c45 -17
1 -46 -93 -60 -58 -9 -48 9 23 42 59 28 51 25 70 18z m916 -314 c0 -23 -56
-90 -75 -90 -23 0 -27 18 -10 49 27 52 85 81 85 41z"/>
<path d="M5439 11352 c-25 -26 -75 -83 -111 -127 -59 -72 -67 -88 -86 -167
-26 -103 -27 -127 -7 -134 8 -4 15 -11 15 -17 0 -7 -4 -7 -12 1 -26 26 -36 8
-66 -110 -84 -331 -224 -995 -237 -1123 -6 -67 -11 -69 57 33 21 32 47 69 59
83 15 19 24 54 34 135 38 303 83 516 166 785 38 126 39 132 23 158 -9 14 -11
20 -3 14 7 -7 16 -13 20 -13 4 0 24 48 44 108 21 59 65 176 98 260 32 84 57
155 55 157 -2 3 -25 -17 -49 -43z"/>
<path d="M6891 11203 c-5 -21 -19 -78 -32 -128 -12 -49 -33 -110 -45 -135 -25
-48 -94 -210 -90 -210 1 0 30 26 63 59 52 50 65 71 96 152 20 52 44 122 53
155 16 58 16 64 -2 103 -10 22 -21 41 -26 41 -4 0 -11 -17 -17 -37z"/>
<path d="M5012 11048 c2 -12 11 -24 21 -26 14 -3 18 1 15 20 -2 12 -11 24 -21
26 -14 3 -18 -1 -15 -20z"/>
<path d="M20482 11048 c-17 -17 -15 -58 3 -58 22 0 35 32 21 52 -10 13 -15 15
-24 6z"/>
<path d="M20391 11024 c0 -11 3 -14 6 -6 3 7 2 16 -1 19 -3 4 -6 -2 -5 -13z"/>
<path d="M6708 10958 c-20 -29 -45 -71 -56 -93 -11 -22 -37 -60 -59 -85 -21
-25 -50 -63 -65 -85 -14 -22 -37 -53 -51 -69 -38 -43 -23 -51 26 -14 46 35
103 102 155 182 32 49 97 204 89 212 -2 2 -20 -20 -39 -48z"/>
<path d="M19490 10987 c0 -22 31 -19 37 3 4 13 3 13 -6 0 -10 -13 -12 -13 -21
0 -8 13 -10 12 -10 -3z"/>
<path d="M20451 10973 c-1 -7 -23 -15 -51 -19 -68 -9 -81 -32 -46 -79 28 -36
33 -61 15 -67 -20 -7 41 -68 67 -68 35 0 59 41 46 79 -8 23 -7 32 4 42 15 13
10 54 -11 79 -7 8 -15 22 -18 30 -3 8 -6 10 -6 3z"/>
<path d="M14295 10949 c-150 -35 -234 -213 -235 -494 0 -82 4 -124 26 -306 l6
-57 -91 -97 c-237 -252 -343 -429 -343 -575 0 -110 40 -177 130 -217 47 -22
64 -25 131 -21 112 7 168 38 311 175 65 62 121 113 125 113 4 0 37 -32 73 -71
161 -174 323 -244 507 -218 163 22 259 116 301 296 20 85 14 307 -11 398 -36
130 -99 186 -160 142 -17 -13 -17 -18 18 -98 93 -221 71 -502 -50 -610 -53
-48 -101 -63 -171 -55 -77 9 -166 54 -241 122 -72 66 -161 178 -161 205 0 9
98 120 217 246 119 125 243 256 276 291 49 52 57 65 47 77 -20 25 -73 18 -118
-15 -55 -39 -155 -133 -338 -313 -99 -98 -156 -147 -164 -142 -28 17 -120 270
-120 330 0 13 58 76 164 180 235 230 298 327 297 455 0 90 -35 151 -116 204
-87 58 -205 79 -310 55z m198 -106 c118 -83 108 -227 -28 -393 -65 -79 -207
-210 -228 -210 -20 0 -31 90 -29 242 3 312 129 471 285 361z m-333 -975 c13
-35 43 -107 68 -160 30 -66 43 -104 39 -120 -8 -30 -218 -244 -283 -289 -82
-56 -136 -41 -170 48 -33 86 6 208 117 368 57 83 187 227 199 220 4 -2 18 -33
30 -67z"/>
<path d="M19442 10931 c-6 -3 -26 -29 -45 -57 l-35 -50 20 -27 c11 -15 25 -27
32 -27 14 0 36 41 36 65 0 8 9 15 20 15 17 0 20 7 20 39 0 29 -4 40 -19 44
-10 2 -23 2 -29 -2z"/>
<path d="M19346 10753 c-6 -14 -5 -15 5 -6 7 7 10 15 7 18 -3 3 -9 -2 -12 -12z"/>
<path d="M19234 10739 c-19 -22 -19 -22 4 -10 12 6 22 16 22 21 0 15 -5 12
-26 -11z"/>
<path d="M6724 10662 c-135 -136 -294 -310 -294 -322 0 -26 192 112 228 165
12 17 35 45 53 64 34 38 95 148 87 157 -3 3 -37 -26 -74 -64z"/>
<path d="M5680 10386 c0 -18 17 -29 30 -21 8 5 7 11 -1 21 -15 18 -29 18 -29
0z"/>
<path d="M20193 10366 c-3 -4 -29 -18 -57 -31 -28 -12 -59 -32 -69 -43 -18
-20 -18 -22 -1 -44 31 -39 142 -128 162 -128 25 0 42 19 42 47 0 19 5 23 29
23 16 0 31 6 34 14 9 23 -5 156 -17 164 -16 10 -117 9 -123 -2z"/>
<path d="M20342 10335 c2 -11 7 -23 13 -27 6 -4 5 -25 -1 -57 -10 -50 -2 -73
10 -28 10 39 6 91 -10 112 l-16 20 4 -20z"/>
<path d="M5770 10300 c0 -5 5 -10 10 -10 6 0 10 5 10 10 0 6 -4 10 -10 10 -5
0 -10 -4 -10 -10z"/>
<path d="M20342 10280 c0 -14 2 -19 5 -12 2 6 2 18 0 25 -3 6 -5 1 -5 -13z"/>
<path d="M6298 10206 c-60 -49 -139 -126 -129 -126 24 0 162 115 182 153 14
25 6 21 -53 -27z"/>
<path d="M5840 10226 c0 -8 7 -16 15 -20 10 -4 15 1 15 14 0 11 -7 20 -15 20
-8 0 -15 -6 -15 -14z"/>
<path d="M11377 10218 c-23 -18 -38 -65 -31 -94 13 -52 93 -17 109 49 12 48
-36 76 -78 45z"/>
<path d="M18567 10088 c-18 -18 -35 -31 -39 -30 -12 3 -25 -30 -30 -80 -7 -58
2 -73 36 -64 22 5 32 0 57 -29 17 -19 37 -35 44 -35 20 0 65 59 65 85 0 12 -7
36 -15 51 -10 19 -12 42 -8 68 5 31 2 42 -12 53 -31 22 -64 15 -98 -19z"/>
<path d="M5990 10082 c1 -12 30 -46 35 -40 9 8 -5 36 -21 42 -8 3 -14 2 -14
-2z"/>
<path d="M4792 10018 c-7 -7 -12 -29 -12 -50 0 -35 2 -38 29 -38 38 0 81 61
61 85 -15 18 -61 20 -78 3z"/>
<path d="M5429 9923 c-71 -79 -81 -165 -32 -271 14 -29 14 -35 1 -50 -8 -9
-36 -61 -62 -115 -26 -54 -52 -97 -58 -95 -7 3 -12 20 -13 40 0 20 -6 42 -12
49 -6 8 -14 29 -18 47 -3 17 -10 32 -15 32 -13 0 -30 -87 -33 -164 -2 -63 0
-69 21 -77 l23 -9 -26 -37 c-14 -21 -25 -49 -25 -62 0 -25 0 -25 35 9 19 18
39 48 45 66 6 17 19 34 30 37 12 3 45 59 97 164 86 172 135 257 198 337 61 77
64 83 25 60 -21 -12 -59 -57 -99 -117 -36 -53 -69 -97 -73 -97 -8 0 -8 1 23
168 11 62 19 117 17 123 -2 7 -24 -11 -49 -38z"/>
<path d="M4618 9943 c-9 -2 -27 -25 -39 -49 -39 -81 -10 -192 48 -181 12 2 20
0 17 -4 -8 -14 23 -10 38 4 27 26 68 47 91 47 37 0 67 39 67 88 0 48 -8 55
-69 57 -27 1 -61 11 -81 23 -35 22 -41 23 -72 15z"/>
<path d="M4297 9894 c-28 -28 55 -244 94 -244 5 0 4 12 -2 27 -5 14 -10 42
-11 62 0 31 -38 117 -58 131 -4 3 -9 11 -11 18 -3 7 -8 10 -12 6z"/>
<path d="M4492 9770 c-8 -31 -7 -42 5 -52 25 -21 40 19 27 70 -9 33 -20 27
-32 -18z"/>
<path d="M20329 9758 l-21 -41 22 -146 c11 -80 23 -156 26 -167 2 -12 24 -44
49 -70 44 -48 44 -49 40 -19 -2 17 -16 109 -30 205 -33 224 -44 280 -56 280
-5 0 -18 -19 -30 -42z"/>
<path d="M19682 9778 c-7 -7 -12 -22 -12 -34 0 -37 -11 -54 -36 -54 -12 0 -27
7 -32 17 -12 21 -45 9 -40 -14 2 -13 14 -18 41 -19 52 -1 65 -16 50 -55 -11
-29 -10 -33 20 -60 21 -20 39 -28 52 -25 11 3 40 6 65 7 25 0 39 3 33 6 -10 3
-10 10 -2 25 8 14 7 28 -1 49 -7 16 -10 38 -7 49 3 10 -1 24 -8 30 -17 14 -63
3 -74 -18 -9 -16 -41 -11 -41 7 0 5 11 23 25 39 32 38 32 62 2 62 -13 0 -28
-5 -35 -12z"/>
<path d="M6486 9585 c-5 -13 28 -55 44 -55 18 0 17 15 -2 41 -24 33 -33 36
-42 14z"/>
<path d="M5068 9478 c-14 -18 -61 -73 -106 -121 -107 -117 -109 -133 -39 -274
65 -133 86 -134 102 -8 4 33 22 143 41 244 18 102 32 186 30 188 -2 2 -14 -11
-28 -29z"/>
<path d="M6675 9390 c3 -5 16 -15 28 -21 l22 -11 -22 21 c-23 22 -39 28 -28
11z"/>
<path d="M4252 9382 c-7 -5 -15 -21 -18 -37 -5 -26 -28 -54 -46 -55 -4 0 -13
12 -20 27 -7 14 -25 35 -40 46 -22 17 -30 18 -43 7 -18 -15 -20 -61 -2 -79 8
-8 12 -43 12 -100 0 -75 3 -92 20 -111 29 -32 93 -62 116 -55 12 4 19 2 19 -8
0 -9 11 -14 30 -14 17 0 30 5 30 10 0 6 7 18 15 27 23 25 22 215 -1 278 -26
71 -40 84 -72 64z"/>
<path d="M6730 9341 c0 -10 19 -25 25 -20 1 2 -3 10 -11 17 -8 7 -14 8 -14 3z"/>
<path d="M5389 9313 c-14 -15 -36 -42 -48 -60 -12 -18 -34 -38 -48 -45 -32
-16 -42 -38 -16 -38 35 1 151 131 141 161 -2 5 -15 -3 -29 -18z"/>
<path d="M4411 9243 c-7 -49 -13 -95 -13 -103 0 -8 -6 -72 -12 -142 -7 -71 -9
-128 -4 -128 4 0 8 8 8 18 1 35 30 240 46 323 17 81 15 119 -4 119 -5 0 -15
-39 -21 -87z"/>
<path d="M4660 9239 c7 -11 14 -19 16 -16 7 7 -7 37 -17 37 -6 0 -5 -9 1 -21z"/>
<path d="M4466 9200 c-3 -19 -7 -51 -10 -70 -13 -87 -57 -564 -54 -583 3 -16
8 -8 20 28 10 31 23 137 33 275 9 124 20 254 25 290 8 69 -4 123 -14 60z"/>
<path d="M5336 9168 c-8 -13 -21 -47 -30 -76 -14 -49 -14 -52 3 -43 29 16 38
34 46 89 8 57 3 64 -19 30z"/>
<path d="M5187 9140 c-9 -11 -19 -31 -23 -45 -3 -14 -10 -28 -16 -31 -5 -3 -4
-12 3 -20 6 -8 14 -31 16 -51 5 -47 8 -50 33 -28 22 20 26 56 9 83 -9 14 -8
25 5 50 29 56 11 86 -27 42z"/>
<path d="M20046 9114 c-3 -9 -6 -35 -6 -59 0 -23 -7 -80 -16 -126 -13 -71 -14
-102 -4 -199 20 -211 27 -343 19 -378 -9 -43 -4 -56 28 -71 36 -16 43 -3 43
87 0 59 -3 72 -16 72 -14 0 -14 2 -1 15 33 33 31 196 -8 525 -8 69 -15 131
-15 138 0 17 -17 15 -24 -4z m29 -694 c-3 -5 -11 -10 -16 -10 -6 0 -7 5 -4 10
3 6 11 10 16 10 6 0 7 -4 4 -10z"/>
<path d="M4764 9087 c-6 -17 36 -106 59 -125 8 -7 20 -26 27 -42 7 -18 20 -30
31 -30 22 0 25 5 33 50 4 22 3 28 -2 16 -8 -18 -9 -18 -15 -2 -4 10 -5 22 -1
27 3 5 -3 9 -13 9 -11 0 -35 22 -57 50 -45 59 -54 66 -62 47z"/>
<path d="M4997 8973 c-4 -3 -7 -14 -7 -24 0 -20 -41 -69 -58 -69 -6 0 -18 -13
-27 -30 -8 -16 -24 -34 -35 -40 -18 -10 -20 -21 -20 -136 l0 -126 23 29 c49
60 59 84 54 125 -5 39 -5 39 15 21 20 -17 21 -17 32 1 6 10 21 31 34 47 19 24
22 34 14 61 -5 18 -7 59 -4 91 4 52 -3 69 -21 50z"/>
<path d="M20135 8758 c7 -226 10 -242 32 -233 14 5 14 3 -2 -14 -20 -23 -22
-55 -10 -220 6 -77 10 -99 18 -86 12 22 14 436 2 477 -8 29 0 78 13 78 4 0 14
-27 20 -61 7 -33 19 -62 27 -65 15 -6 138 109 148 138 5 14 -4 20 -44 32 -28
9 -54 15 -57 14 -4 -1 -16 3 -26 7 -15 6 -24 2 -42 -20 l-22 -28 -15 54 c-9
30 -19 66 -22 82 -4 15 -11 30 -16 33 -6 3 -7 -71 -4 -188z"/>
<path d="M19563 8849 l-31 -45 8 -199 c5 -110 9 -217 10 -238 0 -29 8 -46 36
-75 l35 -37 -4 295 c-3 162 -10 306 -15 319 -9 24 -9 24 -39 -20z"/>
<path d="M19010 8781 c0 -5 12 -24 27 -43 48 -58 50 -59 62 -44 8 10 0 23 -39
55 -28 23 -50 38 -50 32z"/>
<path d="M4361 8734 c0 -11 3 -14 6 -6 3 7 2 16 -1 19 -3 4 -6 -2 -5 -13z"/>
<path d="M20418 8730 c-15 -4 -56 -37 -91 -72 -65 -64 -87 -108 -64 -125 11
-8 18 -9 54 -5 6 1 13 14 15 28 4 37 31 53 55 32 10 -9 29 -18 43 -20 33 -4
40 34 11 59 -22 19 -20 49 7 91 15 24 12 25 -30 12z"/>
<path d="M20477 8556 c-10 -15 -24 -25 -32 -22 -10 4 -14 -25 -17 -142 l-3
-147 35 -75 35 -75 3 123 c1 67 1 177 0 244 l-3 122 -18 -28z"/>
<path d="M4486 8404 c-18 -26 -8 -31 25 -14 23 13 25 26 5 33 -9 3 -21 -4 -30
-19z"/>
<path d="M4350 8374 c0 -8 5 -12 10 -9 6 3 10 10 10 16 0 5 -4 9 -10 9 -5 0
-10 -7 -10 -16z"/>
<path d="M4430 8330 c0 -5 5 -10 10 -10 6 0 10 5 10 10 0 6 -4 10 -10 10 -5 0
-10 -4 -10 -10z"/>
<path d="M4348 8293 c-23 -26 -38 -59 -38 -81 0 -11 -11 -40 -25 -63 -41 -72
-31 -118 42 -195 23 -24 36 -31 55 -27 19 4 32 -2 51 -22 31 -34 47 -29 81 22
19 28 27 57 32 113 4 41 12 86 19 99 10 21 10 30 -4 57 -22 44 -45 48 -84 15
-56 -49 -74 -54 -91 -29 -10 14 -12 27 -6 37 5 10 4 24 -1 34 -6 9 -8 21 -5
25 2 4 1 13 -3 20 -6 9 -11 8 -23 -5z"/>
<path d="M19547 8209 c-4 -50 -4 -95 -1 -101 4 -5 17 9 31 31 22 37 26 40 39
26 23 -23 28 -18 10 10 -9 13 -16 35 -16 48 0 24 -34 77 -49 77 -5 0 -11 -41
-14 -91z"/>
<path d="M12128 8245 c-58 -31 -169 -157 -246 -280 -171 -276 -346 -688 -583
-1375 -303 -875 -431 -1190 -484 -1190 -8 0 -16 9 -20 19 -10 31 63 1472 96
1916 12 154 22 358 22 454 1 171 1 174 -23 193 -26 21 -67 18 -86 -8 -7 -8
-14 -81 -18 -172 -4 -86 -11 -212 -16 -280 -32 -417 -89 -1544 -106 -2082 -7
-241 -1 -289 41 -308 34 -16 58 -15 98 1 25 11 42 32 79 103 47 90 237 575
368 939 198 549 500 1286 651 1586 130 260 219 389 269 389 11 0 28 -12 37
-27 16 -24 18 -58 21 -278 4 -288 3 -306 -83 -1405 -76 -968 -83 -1076 -94
-1315 -7 -152 -12 -189 -31 -240 -34 -86 -34 -194 0 -255 23 -43 24 -57 30
-258 5 -210 5 -214 29 -233 28 -23 54 -24 75 -3 13 13 16 45 16 193 l0 178 73
5 c89 7 164 35 262 99 180 117 346 344 433 590 35 99 78 284 88 379 11 106 19
117 150 208 l119 82 5 -67 c9 -120 72 -182 184 -183 64 0 121 28 175 85 35 37
48 45 79 45 42 0 102 27 150 66 l32 27 0 -29 c0 -83 45 -161 113 -196 64 -33
194 -37 289 -8 91 27 183 75 268 139 78 58 170 154 170 175 0 26 -36 18 -79
-18 -179 -150 -491 -252 -583 -192 -36 24 -62 94 -53 143 21 119 103 213 183
213 16 0 51 -9 76 -21 55 -24 72 -20 87 18 9 25 7 30 -18 50 -40 32 -121 47
-183 34 -112 -24 -163 -64 -262 -204 -50 -71 -124 -127 -166 -127 -23 0 -23 1
-17 78 9 101 -11 178 -56 216 -27 23 -40 26 -102 26 -122 0 -209 -56 -253
-162 -17 -43 -24 -49 -124 -98 -58 -29 -115 -51 -125 -48 -19 3 -20 12 -20
121 0 94 -3 120 -15 127 -21 13 -84 12 -97 -1 -9 -9 -20 -5 -42 14 -60 50
-192 49 -296 -2 -107 -53 -215 -180 -230 -270 -9 -57 15 -122 55 -149 84 -57
277 6 406 132 54 54 64 60 70 44 8 -25 -5 -98 -21 -124 -7 -11 -93 -74 -192
-139 -219 -145 -281 -193 -406 -314 l-98 -95 6 99 c16 257 38 554 60 805 24
272 56 682 95 1225 33 458 23 802 -25 895 -36 70 -123 88 -207 45z m744 -2213
c18 -18 19 -22 5 -48 -36 -70 -202 -208 -263 -220 -45 -8 -64 8 -64 55 1 95
94 207 194 232 46 12 106 3 128 -19z m755 -59 c3 -33 1 -68 -4 -78 -26 -46
-69 97 -43 145 11 20 14 21 27 7 8 -8 17 -41 20 -74z m-85 -157 c45 -39 43
-53 -13 -100 -70 -59 -115 -14 -106 108 2 39 10 84 16 100 l12 29 25 -52 c14
-28 44 -66 66 -85z m-662 -248 c0 -33 -36 -179 -67 -273 -118 -362 -408 -706
-584 -693 l-44 3 2 178 c2 203 -1 193 105 323 82 102 212 221 368 337 74 55
149 110 165 123 38 29 55 30 55 2z"/>
<path d="M19956 8238 c-23 -32 -12 -34 21 -4 21 20 24 26 11 26 -9 0 -24 -10
-32 -22z"/>
<path d="M20010 8200 c-18 -16 -40 -30 -48 -30 -21 0 -41 -30 -42 -62 0 -42
24 -58 83 -57 29 1 65 -2 81 -6 39 -11 56 13 56 78 0 104 -60 140 -130 77z"/>
<path d="M6657 8202 c-9 -10 -20 -39 -23 -63 -5 -36 -3 -48 12 -59 15 -13 17
-13 12 0 -2 8 1 21 9 28 7 7 13 24 13 37 0 13 4 35 10 49 12 32 -8 36 -33 8z"/>
<path d="M4192 8118 c-18 -18 -15 -28 8 -28 13 0 20 7 20 20 0 23 -10 26 -28
8z"/>
<path d="M4060 8109 c0 -4 7 -9 15 -13 9 -3 15 0 15 8 0 7 -7 13 -15 13 -8 0
-15 -4 -15 -8z"/>
<path d="M4107 8053 c-11 -11 -8 -61 4 -69 6 -3 14 -1 18 5 5 8 22 -3 49 -33
43 -47 52 -48 52 -7 -1 51 -96 132 -123 104z"/>
<path d="M19944 8022 c-23 -15 -25 -47 -4 -60 22 -13 60 -1 60 19 0 35 -31 58
-56 41z"/>
<path d="M5143 7936 c-29 -28 -74 -70 -100 -94 -32 -29 -37 -36 -16 -22 18 11
35 25 38 31 4 5 37 30 76 54 62 41 83 67 62 78 -5 2 -31 -19 -60 -47z"/>
<path d="M20060 7975 c-55 -20 -66 -85 -23 -136 l28 -33 -27 18 -27 18 -5 -34
c-2 -18 -13 -106 -23 -196 -20 -181 -12 -192 33 -43 14 47 32 106 40 130 8 25
14 58 14 75 0 17 7 49 15 72 18 53 30 144 19 143 -5 -1 -25 -7 -44 -14z"/>
<path d="M20417 7940 c-3 -30 -13 -143 -21 -250 l-16 -194 27 -28 c15 -15 30
-28 34 -28 4 0 10 30 14 68 3 37 9 87 13 112 5 25 4 61 0 80 -4 19 -8 62 -9
96 0 33 -8 91 -18 130 l-18 69 -6 -55z"/>
<path d="M19633 7918 c-20 -26 -26 -41 -15 -34 12 7 36 46 29 46 -3 0 -9 -6
-14 -12z"/>
<path d="M4300 7880 c0 -23 8 -39 28 -56 15 -13 30 -24 33 -24 4 0 10 -30 13
-67 4 -38 11 -99 16 -138 20 -152 22 -195 11 -195 -6 0 -11 12 -11 28 0 15
-10 38 -21 52 l-21 25 6 -79 c3 -43 6 -96 6 -118 0 -31 3 -38 20 -38 11 0 20
5 20 11 0 5 4 8 9 4 6 -3 5 8 -1 27 -17 57 -21 78 -11 78 5 0 19 -22 30 -50
12 -27 26 -50 32 -50 23 0 29 142 13 320 -17 180 -15 174 -60 189 -27 9 -44
24 -57 47 -10 18 -26 41 -36 50 -18 16 -19 16 -19 -16z"/>
<path d="M19554 7679 c-34 -62 -43 -90 -49 -150 -24 -263 -98 -688 -171 -983
-24 -99 -43 -181 -41 -182 2 -2 26 20 55 49 57 58 48 30 117 359 61 289 144
888 133 962 -2 15 -14 1 -44 -55z"/>
<path d="M20085 7711 c-6 -10 46 -64 53 -56 3 2 -7 18 -21 35 -14 16 -28 26
-32 21z"/>
<path d="M19296 7584 c-14 -26 -26 -49 -26 -52 0 -3 18 12 40 33 41 40 51 65
26 65 -8 0 -26 -21 -40 -46z"/>
<path d="M6156 7592 c-3 -6 -18 -13 -32 -16 -15 -4 -47 -23 -71 -43 -110 -90
-81 -173 38 -112 30 15 56 20 101 18 60 -3 60 -2 75 32 14 34 14 34 -21 67
-20 18 -35 38 -33 45 2 14 -48 22 -57 9z"/>
<path d="M20376 7448 c-3 -13 -17 -104 -32 -203 -93 -637 -265 -1243 -531
-1870 -70 -165 -251 -534 -337 -687 -43 -77 -64 -123 -59 -134 4 -11 2 -15 -4
-11 -14 9 -30 -12 -83 -103 -76 -132 -352 -540 -365 -540 -2 0 32 59 75 131
168 276 324 579 303 586 -7 3 -13 9 -13 15 0 7 5 6 14 -2 17 -14 39 25 135
242 165 373 257 631 386 1078 72 251 176 771 205 1025 14 125 12 131 -14 45
-12 -41 -35 -104 -50 -140 -39 -91 -41 -100 -86 -340 -23 -118 -55 -267 -71
-330 -17 -63 -34 -133 -39 -155 -63 -287 -322 -1002 -472 -1299 -22 -43 -28
-67 -24 -89 5 -24 4 -27 -8 -18 -11 9 -26 -14 -81 -121 -405 -789 -936 -1486
-1478 -1938 -69 -58 -128 -111 -131 -119 -4 -8 10 -29 35 -53 l41 -39 31 28
c122 111 724 730 868 893 95 108 332 394 401 485 59 79 308 451 392 587 62
101 80 148 56 148 -5 0 -10 5 -10 11 0 8 4 8 15 -1 8 -6 19 -9 24 -6 26 16
255 456 359 687 290 648 473 1260 582 1951 36 227 36 247 9 282 -25 32 -37 33
-43 4z"/>
<path d="M4034 7407 c1 -7 14 -29 30 -48 30 -37 30 -34 1 24 -19 37 -35 49
-31 24z"/>
<path d="M5630 7380 c0 -6 5 -8 10 -5 6 3 10 -5 10 -19 0 -14 5 -28 11 -31 7
-5 9 5 7 26 -2 23 -9 35 -20 37 -10 2 -18 -2 -18 -8z"/>
<path d="M5678 7338 c-6 -81 -3 -108 12 -106 8 2 20 13 26 26 6 12 15 26 19
30 5 4 4 0 0 -8 -8 -13 -7 -13 8 -1 18 14 22 22 10 20 -19 -3 -33 2 -33 12 0
6 7 9 15 5 8 -3 15 -1 15 3 0 9 -24 21 -42 21 -5 0 -9 -10 -8 -22 1 -13 1 -36
0 -53 l-2 -30 -7 30 c-4 17 -4 42 0 57 4 15 3 30 -2 33 -5 4 -10 -4 -11 -17z"/>
<path d="M4106 7325 c4 -8 10 -15 16 -15 5 0 6 -10 2 -22 -6 -19 -4 -21 7 -11
11 9 21 4 47 -27 17 -21 32 -43 32 -49 0 -6 5 -11 10 -11 16 0 13 7 -46 80
-54 66 -80 88 -68 55z"/>
<path d="M4135 7260 c-3 -5 -1 -10 4 -10 6 0 11 5 11 10 0 6 -2 10 -4 10 -3 0
-8 -4 -11 -10z"/>
<path d="M4150 7235 c0 -8 56 -65 64 -65 4 0 1 6 -6 14 -7 7 -20 23 -28 35
-13 19 -30 28 -30 16z"/>
<path d="M6670 7172 c0 -13 4 -20 10 -17 6 3 10 1 10 -6 0 -6 8 -18 18 -26 10
-8 11 -11 2 -7 -13 7 -13 6 0 -12 75 -99 166 -152 164 -96 0 12 3 22 7 22 6 0
-2 41 -26 130 -2 8 -4 20 -5 25 0 6 -9 -6 -18 -25 -27 -55 -86 -51 -139 10
l-22 25 -1 -23z m183 -77 c-3 -9 -8 -14 -10 -11 -3 3 -2 9 2 15 9 16 15 13 8
-4z m2 -34 c3 -5 2 -12 -3 -15 -5 -3 -9 1 -9 9 0 17 3 19 12 6z m-1 -57 c3 -8
2 -12 -4 -9 -6 3 -10 10 -10 16 0 14 7 11 14 -7z"/>
<path d="M5080 7086 c0 -3 10 -15 23 -28 44 -43 167 -186 167 -193 0 -4 15
-22 34 -40 19 -18 32 -36 29 -39 -4 -3 2 -6 13 -6 16 0 16 -2 -5 -16 -19 -14
-25 -14 -33 -3 -8 11 -9 10 -4 -3 3 -11 -2 -22 -15 -29 -24 -13 -40 -3 -19 12
13 9 13 10 0 6 -8 -2 -14 -12 -13 -22 1 -10 -7 -27 -18 -38 -10 -11 -23 -35
-29 -52 -6 -19 -28 -44 -53 -62 -45 -31 -154 -79 -163 -71 -3 3 -9 29 -13 58
-11 71 -26 77 -77 30 -23 -21 -55 -45 -71 -54 -17 -8 -36 -28 -43 -45 -6 -16
-18 -32 -26 -35 -8 -3 -14 -13 -14 -21 0 -10 -5 -13 -12 -9 -9 5 -9 2 1 -9 7
-10 9 -17 3 -17 -10 0 -7 -74 4 -91 2 -4 -3 -14 -11 -22 -8 -9 -15 -20 -15
-26 0 -6 -4 -11 -10 -11 -5 0 -9 -3 -9 -7 1 -5 1 -19 0 -33 -1 -20 -3 -22 -11
-10 -8 12 -10 11 -8 -5 3 -26 -10 -118 -24 -173 -7 -26 -20 -50 -35 -59 -16
-11 -23 -25 -23 -48 0 -19 -6 -40 -12 -47 -24 -25 -40 -66 -34 -85 13 -41 69
-81 121 -87 220 -26 263 -35 250 -56 -3 -5 4 -11 15 -15 11 -3 33 -18 50 -31
23 -20 28 -31 24 -53 -5 -24 1 -33 46 -69 89 -71 218 -96 278 -54 17 13 32 19
32 13 0 -5 -4 -13 -10 -16 -5 -3 -10 -15 -10 -25 0 -10 -11 -31 -25 -46 -13
-14 -22 -31 -19 -35 5 -9 66 27 72 43 2 4 9 8 15 8 6 0 19 8 30 17 16 15 37
17 145 15 70 -1 162 2 204 6 45 5 85 4 94 -1 9 -5 46 -9 82 -8 36 0 81 -4 101
-10 30 -8 59 -5 169 20 151 34 222 63 301 123 45 34 57 39 72 29 10 -6 25 -11
33 -11 13 0 12 6 -2 39 -24 52 -77 111 -101 111 -11 0 -27 10 -36 23 -73 103
-94 158 -41 108 19 -18 25 -19 34 -8 19 23 35 158 28 247 -7 105 -24 166 -65
248 l-32 64 44 51 c24 29 63 70 86 92 37 36 55 72 32 63 -5 -1 -48 -39 -95
-83 -84 -77 -106 -93 -133 -94 -15 -1 -18 45 -4 53 11 7 1 147 -12 164 -5 7
-33 24 -60 38 -58 29 -125 29 -170 0 -25 -17 -26 -17 -40 6 -7 13 -20 42 -27
66 -16 49 -52 81 -145 123 -93 42 -189 40 -357 -8 -32 -9 -58 -21 -58 -25 0
-15 151 -182 177 -196 14 -8 66 -16 117 -18 99 -4 146 -11 146 -23 0 -4 23
-18 50 -31 28 -13 50 -27 50 -31 0 -3 -10 -13 -23 -22 -20 -13 -26 -13 -52 0
-17 9 -39 23 -50 33 -34 31 -127 48 -110 20 3 -4 -2 -13 -10 -20 -7 -6 -11
-18 -8 -26 3 -9 -15 -3 -52 16 -31 16 -64 30 -72 30 -8 0 -12 4 -9 9 3 5 -1
12 -10 15 -10 4 -13 13 -9 25 6 21 -3 51 -16 51 -5 0 -41 30 -80 68 -39 37
-78 71 -87 76 -9 6 -82 70 -162 144 -132 122 -180 161 -180 148z m520 -521
c14 -17 4 -22 -58 -31 -55 -7 -65 1 -34 28 32 28 70 30 92 3z m-186 -50 c0 -5
-18 -17 -40 -25 -47 -18 -149 -91 -187 -134 -84 -95 -115 -169 -124 -297 -5
-73 -3 -92 16 -134 21 -47 57 -101 112 -168 20 -24 27 -47 32 -96 4 -43 12
-73 27 -93 12 -17 18 -34 14 -38 -5 -5 -45 3 -89 17 -44 14 -86 27 -92 29 -7
2 -13 12 -13 23 0 11 -9 40 -20 63 -56 123 -93 245 -98 323 -5 80 -5 80 -18
43 -23 -67 -13 -155 28 -236 l36 -72 -24 0 c-15 0 -27 7 -30 18 -3 9 -10 26
-14 37 -51 118 -53 126 -48 193 11 136 87 292 201 408 53 55 78 73 106 78 20
4 65 22 101 41 62 32 126 43 124 20z m270 -58 c13 -9 16 -20 12 -34 -5 -17
-18 -22 -73 -28 -36 -4 -83 -13 -104 -20 -36 -13 -40 -13 -49 6 -6 11 -8 24
-4 30 14 23 90 46 190 58 5 0 18 -5 28 -12z m126 -2 c10 -12 9 -16 -4 -21 -18
-7 -49 13 -40 27 8 14 30 11 44 -6z m136 -126 c59 -57 76 -95 27 -63 -49 31
-122 98 -117 106 11 18 38 5 90 -43z m286 -25 c12 -12 -5 -44 -24 -44 -14 0
-18 5 -14 16 3 9 6 20 6 25 0 10 23 12 32 3z m-569 -42 c-6 -23 33 -42 87 -42
25 0 42 -6 48 -16 5 -8 15 -16 23 -18 8 -1 34 -12 59 -23 35 -17 49 -31 62
-62 20 -47 26 -49 57 -20 31 29 35 19 6 -15 -27 -31 -41 -83 -32 -118 4 -12 4
-49 0 -81 -5 -46 -9 -57 -22 -55 -13 3 -16 16 -16 65 0 34 -3 65 -7 68 -4 4
-36 -16 -71 -44 -47 -37 -72 -66 -92 -107 -24 -49 -30 -55 -51 -50 -32 8 -55
-34 -35 -65 14 -24 0 -79 -26 -100 -8 -7 -19 -23 -24 -36 -10 -26 -40 -30
-102 -12 -35 9 -40 8 -58 -15 -21 -26 -49 -35 -49 -16 0 6 9 20 20 32 l19 21
-58 53 c-49 45 -59 61 -71 108 -16 67 -11 89 42 223 50 126 96 179 205 236 40
21 75 42 78 47 3 6 -5 15 -18 21 -18 8 -36 6 -80 -9 -74 -26 -73 -12 1 21 69
32 112 36 105 9z m445 -105 c2 -12 -3 -17 -17 -17 -15 0 -21 6 -21 21 0 25 33
22 38 -4z m78 -71 c23 -23 46 -67 40 -74 -9 -8 -106 91 -106 108 0 12 41 -10
66 -34z m208 -219 c6 -9 7 -19 4 -23 -7 -7 -57 45 -58 60 0 12 41 -17 54 -37z
m-474 -182 c0 -12 -44 -141 -52 -151 -11 -14 -102 -25 -129 -16 -19 7 -11 17
66 90 75 70 115 97 115 77z m545 -6 c7 -11 -22 -38 -42 -39 -10 0 -10 6 -1 25
12 26 32 33 43 14z m-1445 -20 c0 -14 -5 -19 -17 -17 -26 5 -29 38 -4 38 15 0
21 -6 21 -21z m1390 -33 c0 -2 -7 -7 -16 -10 -8 -3 -12 -2 -9 4 6 10 25 14 25
6z m-770 -136 c0 -5 12 -16 28 -24 23 -13 24 -15 7 -16 -11 -1 -32 -4 -47 -6
-31 -5 -39 4 -31 34 5 22 43 32 43 12z"/>
<path d="M5676 6162 c-37 -12 -63 -30 -100 -71 -28 -31 -77 -82 -108 -113 -32
-31 -60 -67 -63 -80 -9 -36 0 -100 20 -143 10 -22 22 -51 28 -65 21 -53 42
-90 50 -90 5 0 6 8 2 18 -17 39 -17 62 -2 62 9 0 19 -4 22 -10 8 -12 35 -13
53 -1 11 7 9 16 -11 47 -13 22 -30 65 -36 97 -12 54 -11 60 11 97 33 56 168
192 185 186 7 -3 13 -18 13 -33 0 -15 10 -65 23 -109 l22 -82 35 41 c19 22 43
53 52 69 17 27 17 30 0 66 -15 31 -25 39 -70 52 -46 13 -52 18 -52 41 0 35
-15 40 -74 21z"/>
<path d="M5645 5874 c-14 -10 -19 -26 -19 -54 2 -51 19 -73 46 -59 16 9 18 19
16 66 -3 61 -12 71 -43 47z"/>
<path d="M5525 5571 c-3 -5 5 -17 17 -25 26 -18 38 -5 18 19 -14 17 -26 19
-35 6z"/>
<path d="M5451 7009 c-6 -18 -9 -34 -7 -37 3 -2 8 8 12 23 5 20 9 23 15 13 5
-7 9 -8 9 -3 0 6 -4 16 -9 23 -6 10 -11 5 -20 -19z"/>
<path d="M5393 6955 c0 -8 4 -12 8 -9 4 2 10 -2 12 -8 4 -8 6 -9 6 -2 1 6 -5
17 -12 23 -10 8 -14 7 -14 -4z"/>
<path d="M5431 6907 c2 -1 13 -9 24 -17 19 -14 19 -14 6 3 -7 9 -18 17 -24 17
-6 0 -8 -1 -6 -3z"/>
<path d="M7078 6619 c-23 -13 -25 -74 -2 -83 31 -12 62 -6 66 12 8 31 -19 82
-42 82 -3 -1 -13 -5 -22 -11z"/>
<path d="M19796 6392 c-24 -51 -95 -148 -155 -214 -33 -36 -60 -79 -79 -129
-114 -286 -325 -706 -498 -991 -47 -77 -52 -91 -41 -108 11 -19 44 -36 52 -28
14 14 195 331 255 448 40 77 75 138 78 136 6 -7 -77 -185 -195 -419 -97 -191
-105 -210 -93 -232 20 -37 38 -38 61 -2 36 59 206 400 272 547 113 252 225
547 315 830 53 167 66 243 28 162z"/>
<path d="M7134 6362 c-11 -6 -18 -47 -28 -144 -1 -15 -8 -33 -14 -41 -7 -8
-13 -26 -14 -40 -2 -18 -14 -33 -43 -51 -53 -34 -71 -67 -80 -146 -4 -36 -11
-69 -15 -75 -9 -12 -20 -60 -25 -112 -2 -22 -17 -66 -33 -99 -16 -32 -33 -70
-37 -82 -7 -23 -5 -24 32 -18 21 3 45 5 54 6 13 0 18 14 24 58 4 31 11 62 16
68 5 6 10 19 12 30 2 10 11 37 21 59 10 22 29 69 43 105 13 36 33 83 44 106
10 23 19 44 19 48 0 4 16 30 35 59 33 49 35 57 35 133 0 76 -14 144 -28 144
-4 0 -12 -4 -18 -8z"/>
<path d="M6517 6252 c-25 -27 -21 -55 11 -85 25 -24 31 -26 64 -17 31 9 36 15
40 45 7 59 -5 75 -55 75 -30 0 -49 -6 -60 -18z"/>
<path d="M6753 6233 c3 -16 10 -46 16 -68 6 -22 11 -65 11 -95 0 -49 -4 -60
-40 -105 -22 -27 -47 -61 -57 -75 -10 -14 -42 -56 -70 -94 -29 -37 -53 -74
-53 -81 0 -16 56 -65 75 -65 28 0 172 281 184 360 9 65 -4 196 -23 225 -23 35
-50 33 -43 -2z"/>
<path d="M8001 5790 c-1 -25 -4 -62 -7 -82 -6 -35 -5 -38 17 -37 22 0 23 1 4
9 -11 5 -14 9 -7 9 13 1 15 66 2 116 -7 27 -8 26 -9 -15z"/>
<path d="M19149 5812 c-31 -14 -39 -26 -64 -92 -52 -139 -153 -384 -194 -474
-45 -98 -49 -117 -25 -141 9 -9 14 -18 12 -21 -3 -2 -11 2 -18 11 -7 8 -16 15
-21 15 -5 0 -45 -73 -90 -162 -241 -483 -515 -912 -841 -1319 -72 -90 -149
-183 -170 -207 -81 -88 -269 -252 -501 -437 -42 -33 -76 -64 -76 -68 -1 -5 22
-31 49 -58 40 -39 54 -47 68 -40 21 11 232 227 372 381 57 63 199 209 315 325
285 284 494 523 724 830 133 176 361 516 361 537 0 8 -11 25 -24 37 l-23 22
-125 -188 c-69 -103 -183 -264 -253 -358 -132 -177 -337 -426 -343 -420 -2 2
38 68 90 147 168 254 325 527 449 783 40 83 87 179 105 215 63 127 197 455
264 648 21 58 18 60 -41 34z"/>
<path d="M4790 5457 c-36 -17 -51 -33 -73 -77 -18 -37 -26 -67 -24 -92 1 -20
-2 -34 -7 -31 -5 3 -7 0 -5 -6 8 -22 23 -17 44 15 18 29 67 72 50 45 -3 -6 1
-11 9 -11 9 0 16 5 16 11 0 6 13 23 29 38 23 20 30 36 31 66 3 77 1 78 -70 42z"/>
<path d="M6752 5408 c7 -13 18 -30 25 -38 15 -19 7 -31 -37 -52 -19 -10 -62
-33 -95 -53 -33 -20 -92 -51 -130 -70 -41 -20 -81 -48 -95 -66 -42 -55 -94
-157 -135 -264 -15 -38 -35 -79 -45 -90 -51 -56 -62 -95 -67 -225 l-4 -125 34
-59 c18 -33 39 -62 47 -64 7 -3 -3 17 -21 44 l-34 49 0 120 c1 131 5 150 65
255 21 36 57 110 81 165 47 110 92 174 148 209 20 13 70 45 111 71 91 59 194
104 237 105 17 0 35 5 38 10 3 6 2 10 -3 10 -6 0 -24 13 -40 28 -32 30 -77 62
-87 62 -3 0 0 -10 7 -22z"/>
<path d="M8065 5422 c6 -6 63 -12 130 -13 138 -3 241 -21 299 -53 23 -12 61
-30 86 -40 69 -27 130 -59 130 -68 0 -4 7 -8 15 -8 31 0 13 20 -51 57 -100 58
-127 71 -211 100 -69 23 -98 27 -243 31 -115 3 -162 1 -155 -6z"/>
<path d="M9212 5329 c-34 -33 -62 -64 -62 -69 0 -39 100 22 130 79 24 47 24
51 7 51 -7 0 -41 -27 -75 -61z"/>
<path d="M6958 5363 c-36 -9 -17 -23 32 -23 49 0 66 12 34 24 -17 7 -39 6 -66
-1z"/>
<path d="M6146 5285 c-11 -8 -18 -17 -15 -19 2 -3 15 4 29 14 14 11 21 20 15
19 -5 0 -19 -6 -29 -14z"/>
<path d="M5936 5269 c-17 -11 -28 -13 -74 -18 -7 0 -10 -6 -7 -11 8 -13 51 -9
80 7 11 6 35 10 53 9 17 0 32 3 32 8 0 18 11 -2 16 -27 2 -14 -1 -29 -8 -33
-8 -5 -9 -2 -5 9 3 9 1 20 -6 24 -17 11 -66 12 -73 2 -2 -4 5 -6 16 -4 11 2
20 -1 20 -7 0 -5 7 -7 16 -4 11 4 14 1 9 -13 -4 -15 1 -20 30 -25 30 -6 39 -3
65 24 30 31 31 60 1 60 -9 1 -45 3 -81 6 -40 2 -72 0 -84 -7z m179 -20 c3 -4
1 -10 -6 -15 -8 -5 -10 -3 -4 6 5 8 3 11 -6 8 -8 -3 -13 -10 -12 -16 1 -5 -5
-9 -14 -8 -30 5 -23 32 7 32 16 -1 31 -4 35 -7z"/>
<path d="M8953 5053 c-34 -39 -28 -49 7 -13 17 17 30 33 30 35 0 12 -17 2 -37
-22z"/>
<path d="M7214 4959 c-3 -6 -1 -16 5 -22 16 -16 13 -27 -7 -27 -25 0 -45 -25
-67 -85 -32 -89 -73 -170 -95 -190 -29 -26 -70 -112 -70 -147 0 -43 59 -78
130 -78 31 0 61 5 68 12 7 7 12 8 12 3 0 -4 9 0 20 10 11 10 20 13 20 8 0 -11
-31 -27 -39 -21 -5 4 -22 -44 -17 -49 2 -3 21 0 41 6 27 7 46 6 75 -4 32 -11
45 -11 89 2 57 16 70 43 21 43 -49 0 -35 25 30 54 32 15 62 31 65 36 15 24
-95 4 -170 -30 -22 -10 -51 -21 -65 -25 l-25 -7 27 21 c14 11 34 21 43 21 12
0 15 5 10 18 -4 9 -8 29 -9 45 -2 21 2 27 18 28 21 1 21 1 1 6 -11 3 -23 10
-27 17 -6 8 -11 7 -18 -4 -5 -8 -10 -10 -10 -4 0 6 -25 18 -56 28 -30 10 -58
24 -61 33 -8 21 10 47 35 51 12 2 31 15 42 30 11 15 29 37 41 48 17 17 20 29
14 55 -6 33 -3 30 75 -48 80 -81 100 -95 100 -72 0 20 -238 250 -246 238z
m-44 -530 c0 -5 -13 -8 -29 -7 -16 1 -28 5 -25 9 6 10 54 8 54 -2z"/>
<path d="M8865 4953 c-11 -3 -32 -15 -46 -27 -14 -11 -47 -33 -73 -48 -25 -15
-46 -32 -46 -38 0 -22 28 -20 105 7 88 31 129 69 105 98 -7 8 -15 14 -19 14
-3 -1 -15 -4 -26 -6z"/>
<path d="M8590 4863 c-53 -4 -171 -32 -184 -45 -14 -11 120 -10 185 2 30 6 63
19 74 30 22 23 31 21 -75 13z"/>
<path d="M19077 4828 c-8 -13 -53 -89 -101 -170 -48 -81 -141 -227 -206 -325
-151 -225 -135 -202 -264 -373 -313 -413 -628 -750 -1079 -1153 -43 -38 -77
-73 -77 -78 0 -11 32 -49 41 -49 38 0 476 416 745 707 340 368 742 921 978
1346 l38 68 -23 25 c-28 30 -35 30 -52 2z"/>
<path d="M8402 4750 c-18 -3 -33 -8 -33 -13 0 -24 27 -89 42 -103 16 -14 18
-13 36 11 10 14 28 39 41 55 13 16 21 34 18 39 -7 11 -62 17 -104 11z"/>
<path d="M8560 4660 c-18 -16 -40 -30 -50 -30 -19 0 -46 -27 -37 -37 4 -3 28
-9 54 -14 27 -4 62 -11 78 -15 27 -7 29 -6 16 9 -7 10 -19 17 -26 17 -6 0 -20
9 -30 20 -18 19 -17 21 11 45 15 13 26 27 22 30 -3 3 -20 -8 -38 -25z"/>
<path d="M7319 4642 c-13 -15 -13 -20 -3 -30 11 -10 16 -8 25 9 15 28 -2 44
-22 21z m12 -15 c-10 -9 -11 -8 -5 6 3 10 9 15 12 12 3 -3 0 -11 -7 -18z"/>
<path d="M7915 4620 l-40 -7 37 -2 c20 0 40 4 43 9 3 6 5 9 3 9 -2 -1 -21 -5
-43 -9z"/>
<path d="M8023 4623 c9 -2 25 -2 35 0 9 3 1 5 -18 5 -19 0 -27 -2 -17 -5z"/>
<path d="M7603 4563 c-22 -8 -14 -23 11 -23 30 0 42 15 20 24 -9 3 -16 6 -17
5 -1 0 -8 -3 -14 -6z"/>
<path d="M8410 4530 c-13 -8 -12 -10 3 -10 9 0 17 5 17 10 0 12 -1 12 -20 0z"/>
<path d="M8710 4495 c19 -19 41 -35 49 -35 10 0 3 13 -21 35 -49 46 -72 45
-28 0z"/>
<path d="M7656 4511 c-3 -5 -3 -15 0 -23 9 -21 144 -130 156 -126 6 2 -12 31
-39 63 -52 62 -107 102 -117 86z"/>
<path d="M8612 4448 c-7 -7 -12 -20 -12 -29 0 -14 -12 -19 -55 -24 -30 -4 -62
-5 -70 -1 -8 3 -32 -2 -53 -11 -55 -26 -244 -167 -270 -202 l-23 -31 28 -25
c29 -25 58 -32 67 -16 3 5 14 7 25 4 11 -3 38 10 71 35 119 90 311 153 443
146 78 -5 113 -20 151 -65 31 -36 47 -32 23 5 -43 66 -160 116 -267 116 -40 0
-70 4 -70 10 0 6 4 10 9 10 6 0 27 16 48 34 l37 35 -28 10 c-35 14 -39 14 -54
-1z m-347 -218 c-16 -16 -33 -30 -39 -30 -5 0 3 14 19 30 16 17 33 30 39 30 5
0 -3 -13 -19 -30z"/>
<path d="M8211 4324 c-102 -97 -133 -134 -110 -134 13 0 229 209 229 222 0 19
-23 2 -119 -88z"/>
<path d="M7265 4333 c-32 -17 -129 -112 -184 -180 -18 -23 -42 -43 -53 -45
-21 -3 -66 -73 -55 -84 4 -4 16 1 28 12 18 16 17 10 -10 -43 -20 -40 -36 -61
-44 -57 -13 5 -37 -34 -37 -59 0 -7 -9 -20 -19 -29 -18 -16 -19 -19 -5 -65 9
-29 13 -64 9 -88 -20 -126 -6 -242 41 -339 42 -87 59 -87 49 0 -5 38 -7 120
-6 181 2 103 4 116 28 153 33 50 53 52 53 5 l0 -34 40 14 c27 10 48 11 64 5
13 -4 49 -10 80 -11 48 -2 61 1 85 22 45 40 77 52 108 44 73 -20 133 -7 133
30 0 13 13 33 31 48 17 14 28 30 25 36 -4 6 10 19 31 30 21 10 56 35 78 55 33
29 36 35 20 35 -11 1 -44 -10 -73 -24 -30 -14 -68 -25 -85 -25 -30 0 -91 -9
-207 -31 -156 -30 -182 -31 -120 -6 46 20 22 29 -50 21 -39 -4 -64 -12 -69
-22 -7 -13 -12 -14 -24 -4 -13 11 -16 10 -21 -5 -7 -21 -59 -53 -88 -53 -18 0
-20 4 -15 36 12 72 129 281 204 364 20 23 59 53 86 66 33 17 47 30 45 42 -4
23 -36 25 -73 5z"/>
<path d="M7830 4341 c0 -4 14 -20 30 -36 17 -16 30 -25 30 -21 0 4 -13 21 -30
36 -16 15 -30 25 -30 21z"/>
<path d="M6340 4238 c19 -12 60 -43 91 -69 31 -27 63 -49 70 -51 8 -2 22 -11
31 -21 10 -11 22 -16 29 -11 8 4 9 3 5 -4 -4 -7 -1 -12 8 -12 9 0 16 -4 16 -9
0 -13 127 -71 155 -71 20 0 25 5 25 24 0 40 -209 170 -310 191 -19 4 -59 18
-89 31 -66 30 -77 30 -31 2z"/>
<path d="M7930 4243 c0 -5 11 -20 25 -33 14 -13 25 -19 25 -13 0 5 -11 20 -25
33 -14 13 -25 19 -25 13z"/>
<path d="M6750 4195 c-19 -23 -5 -46 26 -43 35 4 43 -19 11 -31 -39 -15 -40
-27 -2 -60 31 -27 38 -29 56 -18 11 6 22 23 25 37 3 14 7 35 10 47 2 11 7 28
10 37 4 10 1 16 -9 16 -8 0 -28 7 -43 15 -37 19 -68 19 -84 0z"/>
<path d="M8982 4163 c2 -5 10 -20 18 -35 18 -38 6 -46 -31 -19 -42 31 -61 24
-79 -29 -8 -25 -15 -47 -17 -48 -1 -2 -14 3 -30 11 -89 49 -255 83 -357 74
-34 -3 -86 -15 -115 -27 -29 -11 -56 -18 -60 -16 -4 3 -13 0 -21 -5 -22 -14 5
-29 53 -29 l38 0 -27 -35 c-14 -19 -27 -46 -28 -59 -1 -29 -39 -41 -57 -20
-11 14 -39 19 -39 8 0 -3 7 -19 17 -34 16 -27 15 -29 -17 -70 -52 -66 -120
-192 -120 -223 0 -34 -18 -116 -31 -139 -5 -10 -9 -30 -9 -45 0 -21 -3 -24 -9
-14 -14 21 -13 -152 0 -221 14 -69 34 -92 55 -63 13 17 16 18 24 5 14 -22 12
-78 -3 -87 -16 -10 -57 -76 -57 -92 0 -21 55 -73 128 -121 84 -55 131 -93 208
-167 68 -66 94 -73 57 -16 l-17 26 35 -7 c29 -5 41 -2 65 19 16 14 32 25 36
25 17 0 126 118 129 139 5 34 29 40 29 7 0 -13 4 -28 10 -31 31 -19 -88 -157
-148 -171 -53 -13 -67 -48 -37 -88 8 -11 15 -28 15 -37 0 -12 6 -16 19 -12 10
3 32 -2 49 -11 37 -19 93 -11 142 19 48 30 128 118 145 159 8 19 34 62 58 97
24 35 63 92 87 127 23 35 53 70 65 78 29 19 23 47 -20 94 -69 75 -65 116 6 59
22 -17 43 -29 46 -26 3 3 11 30 18 60 14 60 7 127 -20 195 -11 26 -14 51 -10
65 4 12 11 51 15 87 5 36 11 78 14 94 6 35 -17 153 -51 266 -28 94 -91 220
-131 263 -24 25 -48 37 -40 20z m-438 -83 c27 -10 35 -28 14 -34 -7 -2 -29 -8
-48 -15 -30 -10 -37 -9 -47 6 -25 33 -13 48 39 52 9 0 28 -3 42 -9z m165 -85
c8 -8 -11 -23 -36 -29 -47 -12 -243 -105 -243 -115 0 -3 7 -15 15 -25 37 -49
2 -48 -48 0 -38 37 -46 54 -25 54 7 0 29 16 49 36 48 46 185 96 244 87 22 -3
42 -7 44 -8z m162 -45 c24 -14 51 -64 43 -84 -7 -18 -16 -20 -30 -6 -5 5 -33
22 -63 38 l-53 30 28 15 c36 18 50 20 75 7z m239 -227 c0 -20 -17 -15 -33 8
-8 11 -30 31 -48 45 -31 23 -34 23 -40 7 -6 -15 -9 -13 -18 12 -10 24 -10 31
2 40 11 8 13 16 5 30 -5 11 22 -14 61 -55 39 -41 70 -81 71 -87z m-280 99 c83
-45 100 -60 100 -89 0 -13 7 -26 15 -29 21 -8 66 -109 72 -160 4 -34 1 -46
-16 -63 -30 -30 -52 -23 -67 19 -12 33 -13 30 -13 -51 -1 -66 2 -88 13 -92 9
-4 19 5 27 25 10 26 14 27 22 13 7 -14 11 -79 8 -142 -1 -21 -20 -15 -46 13
-31 33 -44 24 -38 -26 5 -35 0 -47 -43 -111 -27 -39 -67 -92 -89 -117 -43 -49
-45 -47 33 -26 12 4 22 2 22 -2 0 -13 -99 -76 -109 -70 -5 3 -14 34 -21 68 -6
35 -16 70 -20 79 -13 24 4 82 43 140 20 32 40 78 47 112 11 53 14 57 33 51 21
-6 21 -6 6 12 -22 26 -49 79 -49 98 0 9 22 39 50 68 52 55 60 77 36 98 -8 6
-16 27 -18 47 l-3 35 -101 4 c-108 5 -154 -5 -154 -32 0 -13 -6 -15 -27 -9
-61 17 -68 13 -69 -32 -1 -39 -8 -50 -77 -122 -42 -44 -83 -93 -92 -111 -9
-18 -20 -28 -27 -24 -8 5 -9 2 -5 -9 4 -10 2 -29 -3 -43 -12 -30 -29 -178 -35
-288 -2 -43 -7 -82 -12 -87 -6 -6 -19 8 -32 32 -20 36 -22 46 -13 78 6 20 13
81 16 136 8 133 22 183 87 290 67 113 78 126 163 199 l68 60 104 0 c88 1 101
3 89 15 -7 8 -37 16 -65 19 -60 6 -61 18 -2 49 56 28 107 21 192 -25z m-237
-326 c7 -18 -54 -137 -68 -133 -21 7 -16 57 10 102 27 45 48 57 58 31z m57
-391 c0 -8 -7 -15 -15 -15 -16 0 -20 12 -8 23 11 12 23 8 23 -8z m-47 -139 c6
-36 5 -38 -19 -33 -32 6 -68 -36 -59 -70 7 -28 -13 -52 -37 -45 -16 4 -38 49
-38 79 0 8 9 26 20 40 11 14 23 44 26 65 6 33 11 40 35 45 16 3 34 12 41 21
13 16 13 17 31 -102z"/>
<path d="M8033 4081 c-27 -28 -62 -52 -78 -56 -59 -13 -108 -40 -126 -70 -36
-58 -17 -61 55 -6 28 21 71 49 96 61 25 12 58 34 73 49 26 24 29 25 38 9 14
-25 39 -22 39 3 0 15 -5 19 -15 15 -11 -4 -15 1 -15 19 0 36 -13 31 -67 -24z"/>
<path d="M6430 4050 c0 -5 7 -10 16 -10 8 0 12 5 9 10 -3 6 -10 10 -16 10 -5
0 -9 -4 -9 -10z"/>
<path d="M6801 3812 c-1 -8 -6 -10 -13 -6 -10 5 -10 4 -1 -6 15 -16 28 -8 20
12 -4 11 -6 11 -6 0z"/>
<path d="M6770 3760 c-22 -17 -24 -21 -12 -41 12 -19 12 -21 -2 -16 -17 7 -23
-8 -6 -16 6 -3 5 -4 -2 -3 -7 2 -12 15 -11 30 1 14 -3 26 -9 26 -7 0 -9 -15
-5 -39 4 -36 2 -41 -23 -51 -15 -6 -44 -27 -64 -46 -35 -33 -64 -46 -50 -21 6
9 4 9 -7 1 -8 -6 -24 -14 -37 -17 -18 -4 -22 -2 -18 9 3 8 0 14 -7 15 -36 3
-100 -1 -106 -7 -3 -4 6 -4 22 -2 15 3 30 1 34 -5 3 -6 1 -7 -5 -3 -6 3 -20
-4 -32 -16 -18 -19 -22 -20 -30 -8 -8 12 -10 12 -10 1 0 -7 -6 -11 -14 -8 -8
3 -16 0 -19 -6 -3 -9 40 -12 172 -12 196 0 220 6 305 79 39 34 40 34 30 81 -6
35 -17 54 -39 71 -30 23 -30 23 -55 4z m-265 -180 c-3 -5 -12 -10 -18 -10 -7
0 -6 4 3 10 19 12 23 12 15 0z"/>
<path d="M7627 3760 c-14 -11 -30 -20 -36 -20 -6 0 -11 -7 -11 -16 0 -9 -16
-34 -35 -56 -35 -38 -38 -58 -9 -58 8 0 23 5 34 12 17 11 25 6 74 -45 31 -31
58 -57 61 -57 12 0 3 41 -20 94 -34 78 -33 85 15 82 76 -4 117 -64 191 -276
l43 -125 1 -222 c0 -215 1 -222 23 -250 12 -15 26 -37 31 -48 10 -24 39 -50
46 -43 3 3 2 19 -1 36 -4 21 -13 32 -27 34 -19 3 -20 9 -16 123 5 187 3 302
-9 400 -14 116 -21 145 -39 152 -8 3 -27 33 -43 67 -32 69 -74 118 -138 161
-24 16 -52 39 -62 52 -22 28 -40 29 -73 3z"/>
<path d="M9294 3714 c3 -9 6 -20 6 -26 0 -6 6 -6 15 2 22 18 18 40 -6 40 -15
0 -19 -4 -15 -16z"/>
<path d="M4660 3586 c0 -6 126 -126 150 -143 12 -8 24 -12 28 -9 9 10 -140
156 -160 156 -10 0 -18 -2 -18 -4z"/>
<path d="M6331 3536 c-9 -11 -9 -16 1 -22 7 -4 10 -4 6 1 -4 4 -3 14 3 22 6 7
9 13 6 13 -2 0 -10 -6 -16 -14z"/>
<path d="M6256 3459 c-15 -22 -33 -38 -40 -36 -6 2 -22 -4 -35 -14 -13 -11
-32 -19 -41 -19 -10 0 -20 -7 -24 -15 -3 -8 -11 -15 -18 -15 -9 0 -8 3 2 10 8
5 10 10 5 10 -13 0 -45 -36 -45 -50 0 -6 -3 -9 -7 -9 -22 4 -33 -4 -52 -33
-11 -18 -28 -44 -38 -58 -10 -14 7 -4 42 26 33 27 94 72 135 99 80 53 166 130
153 138 -5 3 -21 -13 -37 -34z"/>
<path d="M6638 3404 c-49 -26 -54 -50 -20 -104 l29 -47 -29 -17 c-32 -19 -61
-59 -63 -86 -2 -19 -71 -109 -95 -124 -24 -15 -89 -89 -85 -96 2 -4 -4 -16
-14 -27 -24 -25 -51 -77 -51 -98 0 -26 36 -17 68 18 17 17 65 69 108 115 42
45 82 82 89 82 6 0 17 -11 25 -24 7 -14 26 -30 41 -37 30 -12 37 -37 17 -57
-9 -9 -8 -12 4 -12 15 0 33 26 30 43 -1 4 3 7 8 7 6 0 24 12 39 28 16 15 36
33 45 40 9 7 14 17 11 22 -3 6 0 7 8 4 8 -3 17 2 20 10 4 9 13 16 20 16 16 0
49 34 45 46 -1 5 4 20 11 32 12 22 9 28 -37 80 -51 58 -52 59 -144 64 -27 1
-28 3 -28 54 0 53 -7 84 -19 84 -3 -1 -18 -7 -33 -16z"/>
<path d="M11115 3308 c-11 -6 -43 -32 -71 -57 -28 -25 -72 -63 -97 -84 -26
-21 -47 -43 -47 -48 0 -22 35 -20 98 7 37 16 69 29 72 30 16 3 89 41 86 45 -2
2 19 5 48 7 29 1 65 7 82 12 21 7 -2 9 -83 8 -64 -1 -113 2 -113 8 0 8 11 24
48 67 17 19 7 22 -23 5z"/>
<path d="M9460 3216 c0 -2 12 -17 26 -34 15 -16 39 -61 55 -98 28 -66 69 -124
89 -124 6 0 10 5 10 11 0 7 12 8 33 4 l32 -6 -25 21 c-56 46 -66 60 -84 109
-23 65 -74 121 -110 121 -14 0 -26 -2 -26 -4z"/>
<path d="M10021 3194 c0 -11 3 -14 6 -6 3 7 2 16 -1 19 -3 4 -6 -2 -5 -13z"/>
<path d="M5914 3155 c-4 -8 -10 -12 -15 -9 -5 3 -6 -2 -3 -11 7 -18 7 -18 23
13 6 12 9 22 6 22 -3 0 -8 -7 -11 -15z"/>
<path d="M7058 3156 c-19 -14 -23 -26 -10 -26 4 0 13 9 20 20 14 23 13 24 -10
6z"/>
<path d="M5876 3105 c-9 -26 -7 -32 5 -12 6 10 9 21 6 23 -2 3 -7 -2 -11 -11z"/>
<path d="M6930 3045 c-19 -18 -77 -73 -129 -122 -93 -88 -255 -272 -246 -281
2 -2 12 3 21 12 20 20 158 125 197 150 32 20 47 15 27 -9 -15 -18 -7 -19 21
-4 11 5 17 14 14 19 -3 6 1 7 9 4 10 -4 16 -1 17 7 1 8 2 23 3 34 1 11 3 32 4
48 1 16 8 27 17 27 8 0 15 8 15 18 0 10 11 29 25 42 25 23 26 23 39 4 39 -55
55 -69 66 -58 21 21 -25 145 -54 143 -6 0 -27 -15 -46 -34z"/>
<path d="M9200 2962 c0 -5 7 -16 16 -23 14 -12 16 -11 13 5 -4 20 -29 35 -29
18z"/>
<path d="M7836 2898 c27 -78 85 -185 115 -213 41 -40 39 -13 -6 73 -19 37 -46
93 -59 125 -19 42 -30 57 -45 57 -19 0 -20 -2 -5 -42z"/>
<path d="M7023 2890 c-17 -16 -37 -46 -44 -67 -6 -20 -27 -53 -46 -72 -46 -47
-70 -95 -78 -156 -4 -28 -14 -72 -22 -100 -10 -30 -17 -92 -18 -157 -2 -71 -7
-113 -15 -123 -7 -9 -43 -32 -79 -53 l-66 -36 -155 -1 -155 0 -63 34 c-35 19
-80 49 -100 68 -41 38 -52 41 -52 14 0 -11 12 -23 30 -31 16 -7 43 -25 59 -41
67 -64 101 -73 266 -73 144 1 153 2 230 32 44 18 85 32 92 32 20 0 23 -30 21
-203 -1 -92 3 -172 8 -177 5 -5 8 13 6 46 -4 53 -3 55 26 66 20 8 33 22 39 42
7 23 15 31 31 30 33 -1 30 43 -3 56 -13 5 -27 20 -31 34 -6 26 -1 126 9 165
11 41 58 101 80 101 8 0 18 11 21 24 3 14 17 38 31 54 14 17 28 45 31 64 4 18
20 46 35 61 42 43 70 169 55 250 -6 33 -87 147 -104 147 -4 0 -21 -13 -39 -30z"/>
<path d="M9672 2886 c1 -15 7 -31 13 -36 18 -14 228 -17 232 -2 3 8 -6 12 -28
12 -44 0 -191 30 -206 42 -10 8 -12 4 -11 -16z"/>
<path d="M16984 2793 c-730 -522 -1465 -876 -2371 -1142 -40 -12 -73 -24 -73
-26 0 -13 46 -55 60 -55 24 0 261 71 430 128 248 85 468 171 721 285 76 35
359 176 456 228 255 138 546 320 814 511 162 115 141 87 -81 -106 -121 -105
-326 -271 -455 -366 -130 -97 -460 -318 -600 -402 -301 -181 -734 -398 -941
-473 -118 -43 -118 -43 -102 -63 12 -15 11 -15 -10 0 -17 12 -31 14 -50 8
-645 -205 -1330 -324 -2037 -355 -71 -4 -150 -7 -175 -9 -63 -3 -252 -27 -270
-33 -25 -10 59 -22 153 -22 81 -1 89 1 109 24 12 14 26 25 32 25 5 0 -1 -11
-14 -25 -13 -14 -21 -28 -17 -31 24 -24 658 18 997 67 152 21 183 23 160 10
-18 -11 -366 -82 -545 -111 -71 -12 -131 -23 -133 -24 -1 -2 40 -10 91 -19 51
-10 132 -30 178 -46 81 -27 89 -28 189 -20 299 25 412 40 717 94 386 70 863
189 863 216 0 6 9 8 19 4 11 -3 84 16 169 44 647 216 1216 492 1798 872 113
74 170 103 114 59 -154 -124 -431 -321 -613 -437 -359 -228 -862 -487 -1232
-633 -44 -17 -84 -36 -89 -41 -14 -13 28 -49 57 -49 14 0 87 26 163 59 563
237 1112 552 1601 918 249 186 603 485 603 508 0 21 -77 88 -92 79 -7 -4 -76
-55 -153 -113 -160 -121 -195 -146 -395 -280 -525 -353 -1164 -661 -1805 -871
-88 -29 -164 -57 -169 -61 -5 -5 -3 -15 5 -25 12 -16 11 -15 -14 1 -28 18 -30
17 -140 -13 -401 -113 -819 -193 -1237 -237 -227 -24 -218 -16 45 39 239 51
662 180 963 292 186 70 207 81 191 100 -8 10 -8 14 0 14 6 0 11 -4 11 -10 0
-16 35 -12 87 11 26 11 100 40 163 64 674 256 1232 552 1796 955 164 117 435
331 441 348 6 14 -24 52 -41 52 -6 0 -45 -28 -86 -62 -128 -105 -408 -311
-565 -415 -173 -115 -474 -298 -480 -292 -2 3 35 31 83 64 280 190 663 495
885 705 l88 83 -53 54 c-29 29 -55 53 -59 53 -3 0 -73 -48 -155 -107z m-3184
-1803 c-34 -11 -60 -11 -35 0 11 5 29 8 40 8 16 0 15 -2 -5 -8z"/>
<path d="M7290 2814 c-15 -39 -12 -79 8 -97 21 -19 161 -111 199 -130 41 -22
118 -46 197 -64 39 -8 89 -19 111 -24 22 -5 66 -14 99 -19 32 -6 95 -22 140
-35 214 -63 255 -73 304 -77 29 -3 55 -2 57 2 3 4 -22 19 -54 33 -62 27 -160
108 -199 164 -26 37 -82 72 -82 51 0 -7 16 -31 35 -52 19 -22 33 -41 31 -43
-2 -2 -59 24 -127 58 -177 88 -179 89 -196 89 -18 0 -141 42 -231 79 -37 15
-101 36 -142 46 -41 10 -87 24 -102 31 -36 18 -37 18 -48 -12z"/>
<path d="M5844 2611 c3 -42 11 -69 26 -88 40 -52 212 -224 218 -219 3 3 -34
43 -81 88 -93 90 -147 175 -147 233 0 19 -5 37 -11 40 -7 5 -9 -13 -5 -54z"/>
<path d="M10462 2654 c-12 -8 -22 -19 -22 -25 0 -12 38 12 44 28 7 16 5 16
-22 -3z"/>
<path d="M8396 2589 c0 -21 -3 -36 -8 -33 -10 7 -10 1 2 -31 5 -14 15 -23 20
-20 6 4 9 1 8 -6 -2 -7 2 -13 9 -14 6 0 15 -3 19 -7 4 -5 22 -8 40 -8 49 0 54
42 10 80 -13 10 -19 10 -31 0 -13 -11 -14 -10 -9 5 6 14 4 16 -6 10 -10 -6
-12 -4 -7 9 4 10 1 19 -8 22 -8 4 -13 10 -10 14 3 4 -3 10 -13 12 -14 4 -17
-2 -16 -33z"/>
<path d="M7442 2459 c-22 -8 -23 -12 -17 -81 6 -70 21 -115 47 -149 15 -18 71
-39 104 -39 25 0 32 14 13 26 -7 4 -8 20 -4 42 l7 36 -21 -24 -21 -25 -30 35
c-21 24 -28 41 -24 55 3 11 8 32 11 48 6 31 26 35 45 9 12 -17 38 -37 38 -30
0 12 -54 74 -77 90 -31 20 -38 21 -71 7z"/>
<path d="M5900 2373 c0 -15 111 -133 125 -133 8 0 12 6 10 13 -7 16 -135 131
-135 120z"/>
<path d="M6082 2198 c3 -7 13 -15 24 -17 16 -3 17 -1 5 13 -16 19 -34 21 -29
4z"/>
<path d="M7985 2168 c13 -65 18 -78 31 -78 8 0 14 7 14 15 0 9 13 22 29 28 36
15 29 33 -20 47 -50 15 -58 13 -54 -12z"/>
<path d="M7734 2029 c-3 -6 5 -22 19 -35 14 -13 28 -20 31 -16 7 11 -7 27 -23
27 -8 0 -16 6 -19 14 -3 10 0 12 12 8 10 -4 15 -3 11 3 -8 13 -22 13 -31 -1z"/>
<path d="M7775 1950 c-3 -5 -1 -10 4 -10 6 0 11 5 11 10 0 6 -2 10 -4 10 -3 0
-8 -4 -11 -10z"/>
<path d="M7831 1952 c0 -7 -5 -11 -10 -7 -5 3 -12 1 -15 -4 -6 -10 43 -25 52
-16 3 3 0 5 -6 5 -6 0 -13 8 -15 18 -3 9 -5 11 -6 4z"/>
<path d="M8955 1932 l-30 -17 34 -3 c20 -2 37 2 42 10 21 32 1 37 -46 10z"/>
<path d="M9715 1919 c-28 -15 -79 -59 -113 -96 -34 -37 -73 -80 -87 -94 -28
-30 -31 -44 -11 -52 8 -3 38 20 72 55 42 43 80 70 133 94 73 34 73 35 66 67
-4 18 -7 38 -8 45 0 6 -1 11 -1 11 -1 -1 -24 -14 -51 -30z"/>
<path d="M7876 1925 c4 -8 11 -15 16 -15 6 0 5 6 -2 15 -7 8 -14 15 -16 15 -2
0 -1 -7 2 -15z"/>
<path d="M8710 1835 c-17 -20 -5 -34 48 -56 45 -19 47 -19 60 -2 13 17 14 16
7 -5 -6 -22 -5 -23 42 -20 67 4 62 25 -15 65 -68 35 -122 42 -142 18z m65 -6
c11 -16 1 -19 -13 -3 -7 8 -8 14 -3 14 5 0 13 -5 16 -11z m124 -62 c0 -9 -2
-8 -6 1 -2 6 -10 9 -15 6 -7 -4 -8 -2 -4 5 9 13 26 5 25 -12z"/>
<path d="M9509 1813 c-13 -15 -12 -15 9 -4 23 12 28 21 13 21 -5 0 -15 -7 -22
-17z"/>
<path d="M9283 1777 c-11 -17 -22 -42 -25 -54 -5 -19 -2 -23 15 -23 22 0 62
19 42 20 -5 0 -4 4 4 9 9 6 11 18 6 40 -9 44 -20 46 -42 8z"/>
<path d="M6881 1685 c11 -19 56 -70 100 -113 62 -62 99 -88 174 -126 52 -26
97 -51 100 -56 8 -13 45 -13 45 1 0 5 -4 8 -8 5 -5 -3 -22 8 -37 24 -16 17
-34 30 -41 30 -6 0 -23 9 -38 21 -14 11 -30 18 -35 15 -29 -19 -181 106 -237
196 -30 48 -51 51 -23 3z"/>
<path d="M8680 1686 c0 -20 5 -36 10 -36 6 0 10 13 10 29 0 17 -4 33 -10 36
-6 4 -10 -8 -10 -29z"/>
<path d="M9055 1710 c-4 -6 -1 -17 5 -25 7 -9 10 -28 7 -45 -6 -28 -5 -30 26
-30 17 0 55 -3 83 -6 47 -5 52 -8 58 -35 3 -16 11 -29 17 -29 13 0 119 110
119 124 0 5 -26 5 -57 2 -111 -14 -154 -7 -189 31 -22 24 -58 31 -69 13z"/>
<path d="M8101 1698 c-6 -7 -29 -35 -51 -61 -22 -27 -40 -52 -40 -58 0 -16
102 -10 165 10 58 18 59 20 33 30 -14 5 -29 18 -33 28 -3 10 -19 28 -35 41
-23 18 -31 20 -39 10z"/>
<path d="M8735 1650 c18 -20 45 -27 45 -12 0 15 -24 32 -44 32 -18 0 -19 -1
-1 -20z"/>
<path d="M9335 1569 c-41 -40 -75 -78 -75 -85 0 -21 -53 -76 -109 -114 -33
-23 -56 -48 -65 -71 -8 -20 -27 -47 -43 -61 -15 -13 -37 -34 -47 -46 -31 -36
2 -26 39 12 18 19 36 32 39 29 3 -4 6 -34 6 -68 0 -63 18 -128 60 -220 41 -89
244 -268 265 -234 4 5 0 21 -9 34 -9 13 -16 35 -16 48 0 27 -11 62 -47 156
-13 35 -28 84 -33 110 -15 83 -40 185 -63 254 l-22 69 24 19 c25 20 41 17 41
-8 0 -8 6 -29 14 -46 8 -18 17 -44 20 -58 7 -33 85 -131 100 -126 22 7 31 120
27 332 -1 55 -1 109 1 120 7 43 -33 27 -107 -46z"/>
<path d="M8666 1621 c-4 -7 -5 -15 -2 -18 9 -9 19 4 14 18 -4 11 -6 11 -12 0z"/>
<path d="M14460 1596 c-14 -14 -61 -43 -105 -65 -44 -23 -72 -41 -63 -41 23 0
262 61 271 70 13 11 -33 60 -56 60 -13 0 -34 -11 -47 -24z"/>
<path d="M8598 1527 c-32 -34 -58 -63 -58 -63 0 -1 10 0 21 3 12 3 30 21 41
39 10 18 25 34 32 37 7 3 16 15 19 26 3 12 4 21 4 20 -1 0 -28 -28 -59 -62z"/>
<path d="M8460 1423 c-26 -18 -43 -23 -65 -19 -20 4 -42 -1 -65 -14 -19 -10
-72 -37 -117 -60 -46 -22 -83 -43 -83 -46 0 -19 235 61 271 92 8 8 22 14 30
14 8 0 30 13 49 30 42 35 29 38 -20 3z"/>
<path d="M13295 1380 c-22 -4 -62 -19 -90 -33 -41 -22 -45 -27 -25 -27 52 0
256 20 285 28 29 9 29 9 -27 25 -59 18 -79 19 -143 7z"/>
<path d="M12770 1370 c0 -5 10 -10 23 -10 12 0 35 -7 51 -15 33 -17 55 -13 81
15 18 20 17 20 -68 20 -51 0 -87 -4 -87 -10z"/>
<path d="M6990 1265 c0 -8 5 -15 10 -15 6 0 10 -4 10 -9 0 -6 11 -22 25 -37
l25 -27 0 29 c0 22 -9 34 -35 52 -28 18 -35 19 -35 7z"/>
<path d="M10710 1273 c-8 -3 -32 -21 -53 -40 -32 -28 -41 -32 -58 -22 -15 7
-29 8 -47 0 -15 -5 -40 -11 -57 -13 -36 -4 -41 -31 -7 -36 15 -2 22 -9 20 -20
-2 -12 -18 -19 -55 -23 -57 -7 -78 -19 -115 -64 -34 -43 -71 -139 -84 -222 -4
-24 -12 -43 -19 -43 -15 0 -47 -93 -39 -113 7 -19 -23 -67 -42 -67 -7 0 -32
27 -56 60 -50 72 -77 82 -49 18 11 -24 27 -69 36 -100 9 -31 25 -67 36 -79 10
-12 19 -28 19 -34 0 -22 32 -26 53 -8 18 17 59 87 62 108 1 6 3 16 3 23 1 6 9
12 17 12 11 0 15 11 15 38 0 49 93 235 142 284 10 10 18 22 18 27 0 5 7 17 16
26 12 12 33 15 82 14 64 -2 65 -2 104 39 21 23 38 50 38 61 0 10 7 21 15 25
22 8 18 36 -5 36 -30 0 -24 16 15 40 33 21 65 56 65 72 0 9 -47 9 -70 1z"/>
<path d="M10934 1234 c25 -38 113 -120 105 -97 -5 13 -65 79 -104 113 l-28 25
27 -41z"/>
<path d="M8575 1094 c6 -19 15 -37 20 -41 4 -5 5 -2 1 5 -5 8 1 12 20 12 l27
0 -22 24 c-13 13 -31 26 -40 29 -16 4 -17 1 -6 -29z"/>
<path d="M11120 1051 c0 -5 5 -13 10 -16 6 -3 10 -2 10 4 0 5 -4 13 -10 16 -5
3 -10 2 -10 -4z"/>
<path d="M11376 1025 c-3 -9 -4 -20 -2 -24 4 -6 103 -7 220 -2 48 2 24 10 -55
20 -41 6 -92 13 -115 17 -33 5 -42 3 -48 -11z"/>
<path d="M10826 1005 c-3 -8 6 -26 19 -41 21 -23 26 -24 31 -10 6 17 -20 66
-35 66 -5 0 -11 -7 -15 -15z"/>
<path d="M7850 975 c0 -7 111 -209 121 -219 5 -5 12 -6 16 -3 12 13 -100 225
-119 226 -10 1 -18 -1 -18 -4z"/>
<path d="M8711 922 c-31 -33 -32 -37 -15 -49 15 -11 19 -10 28 9 6 11 20 26
31 32 11 6 22 12 24 13 6 4 -20 33 -28 32 -3 -1 -21 -18 -40 -37z"/>
<path d="M15144 893 c-70 -28 -460 -158 -523 -173 -23 -6 -40 -14 -37 -18 4
-3 31 -14 61 -23 l55 -17 117 38 c180 58 437 150 447 160 11 11 -17 46 -43 53
-10 2 -45 -6 -77 -20z"/>
<path d="M7397 846 c38 -55 53 -62 53 -24 0 22 -54 78 -77 78 -10 0 -2 -17 24
-54z"/>
<path d="M10685 733 c-26 -60 -60 -120 -74 -136 -19 -21 -22 -30 -13 -39 10
-10 18 -7 37 12 28 30 92 139 111 194 14 37 11 76 -5 76 -4 0 -29 -48 -56
-107z"/>
<path d="M11592 835 c7 -8 270 -46 276 -41 7 8 -15 14 -112 31 -86 15 -174 20
-164 10z"/>
<path d="M12190 827 c9 -8 176 -67 191 -67 9 0 26 10 38 21 18 17 20 24 10 29
-15 8 -247 25 -239 17z"/>
<path d="M12434 779 l-29 -31 25 -20 c23 -19 34 -20 130 -14 58 3 193 9 300
13 215 7 218 5 -45 53 -105 20 -193 30 -256 30 -93 0 -96 -1 -125 -31z"/>
<path d="M11504 761 c11 -12 34 -31 53 -42 30 -19 55 -21 288 -26 150 -4 255
-2 255 3 0 12 -79 61 -110 68 -14 3 -133 8 -265 11 l-240 7 19 -21z"/>
<path d="M7602 658 c13 -13 46 -49 73 -82 27 -32 64 -74 83 -95 19 -20 61 -66
95 -104 33 -37 62 -65 65 -63 6 7 -39 79 -55 89 -7 4 -13 13 -13 18 0 28 -233
259 -261 259 -5 0 0 -10 13 -22z"/>
<path d="M10957 613 c-8 -40 3 -83 21 -83 12 0 14 9 8 47 -8 57 -21 74 -29 36z"/>
<path d="M11280 511 c0 -18 43 -73 63 -80 27 -10 207 -35 212 -29 6 5 -17 78
-24 78 -3 0 -61 9 -128 19 -68 10 -123 15 -123 12z"/>
<path d="M13506 485 c-44 -8 -168 -21 -278 -31 -109 -10 -198 -20 -197 -23 0
-3 26 -19 58 -34 l58 -29 160 16 c88 9 218 25 289 36 71 11 136 20 144 20 8 1
-2 10 -22 20 -20 11 -40 24 -43 30 -8 13 -71 11 -169 -5z"/>
<path d="M11120 480 c-12 -8 -12 -10 3 -16 21 -8 35 2 21 16 -5 5 -15 6 -24 0z"/>
<path d="M8234 439 c-3 -6 -1 -16 5 -22 9 -9 14 -8 21 3 5 8 10 18 10 23 0 11
-28 8 -36 -4z"/>
<path d="M12211 380 l44 -39 124 -1 123 0 -17 28 c-32 50 -40 52 -183 52
l-135 0 44 -40z"/>
<path d="M8150 352 c0 -11 8 -18 20 -19 23 -2 26 7 8 25 -17 17 -28 15 -28 -6z"/>
<path d="M9922 333 c-63 -54 -84 -191 -44 -291 14 -36 21 -42 42 -40 20 2 25
9 25 33 0 17 8 44 18 62 30 57 56 137 65 201 l9 62 -42 0 c-30 0 -49 -7 -73
-27z"/>
<path d="M10274 171 c37 -39 98 -65 131 -57 24 6 20 10 -52 46 -94 48 -118 51
-79 11z"/>
<path d="M7960 161 c-17 -32 -13 -43 10 -31 11 6 20 20 20 30 0 25 -16 26 -30
1z"/>
</g>
</svg>
